<svg width="19" height="16" viewBox="0 0 19 16" fill="none" xmlns="http://www.w3.org/2000/svg">
<path d="M0.833008 16V14H18.833V16H0.833008ZM0.833008 2V0H18.833V2H0.833008ZM2.83301 12C2.28301 12 1.81234 11.8043 1.42101 11.413C1.02967 11.0217 0.833674 10.5507 0.833008 10V6C0.833008 5.45 1.02901 4.97933 1.42101 4.588C1.81301 4.19667 2.28367 4.00067 2.83301 4H16.833C17.383 4 17.854 4.196 18.246 4.588C18.638 4.98 18.8337 5.45067 18.833 6V10C18.833 10.55 18.6373 11.021 18.246 11.413C17.8547 11.805 17.3837 12.0007 16.833 12H2.83301ZM2.83301 10H16.833V6H2.83301V10Z" fill="#000"/>
</svg>
