<svg width="28" height="29" viewBox="0 0 28 29" fill="none" xmlns="http://www.w3.org/2000/svg">
<path fill-rule="evenodd" clip-rule="evenodd" d="M3.50002 11C3.50002 8.21523 4.60626 5.54451 6.5754 3.57538C8.54453 1.60625 11.2152 0.5 14 0.5C16.7848 0.5 19.4555 1.60625 21.4246 3.57538C23.3938 5.54451 24.5 8.21523 24.5 11V16.646L27.233 22.112C27.3588 22.3636 27.4182 22.6431 27.4056 22.9241C27.393 23.2051 27.3087 23.4782 27.1608 23.7175C27.0129 23.9568 26.8063 24.1543 26.5606 24.2912C26.3149 24.4282 26.0383 24.5 25.757 24.5H19.811C19.4774 25.7874 18.7257 26.9275 17.6739 27.7414C16.6222 28.5553 15.3299 28.9969 14 28.9969C12.6701 28.9969 11.3779 28.5553 10.3261 27.7414C9.27437 26.9275 8.52267 25.7874 8.18902 24.5H2.24302C1.96173 24.5 1.68511 24.4282 1.43942 24.2912C1.19373 24.1543 0.987124 23.9568 0.839235 23.7175C0.691346 23.4782 0.60708 23.2051 0.59444 22.9241C0.581801 22.6431 0.641207 22.3636 0.767018 22.112L3.50002 16.646V11ZM11.402 24.5C11.6653 24.956 12.044 25.3347 12.5001 25.598C12.9561 25.8613 13.4734 25.9999 14 25.9999C14.5266 25.9999 15.0439 25.8613 15.5 25.598C15.956 25.3347 16.3347 24.956 16.598 24.5H11.402ZM14 3.5C12.0109 3.5 10.1032 4.29018 8.69672 5.6967C7.29019 7.10322 6.50002 9.01088 6.50002 11V16.646C6.49999 17.1115 6.39163 17.5706 6.18352 17.987L4.42852 21.5H23.573L21.818 17.987C21.6094 17.5707 21.5005 17.1116 21.5 16.646V11C21.5 9.01088 20.7098 7.10322 19.3033 5.6967C17.8968 4.29018 15.9891 3.5 14 3.5Z" fill="#0D021B"/>
</svg>
