<svg width="28" height="29" viewBox="0 0 28 29" fill="none" xmlns="http://www.w3.org/2000/svg">
<path d="M16.7021 11.1644C16.5405 10.7099 16.2424 10.3165 15.8485 10.038C15.4547 9.75942 14.9845 9.60939 14.5021 9.60841H12.6961C12.1809 9.60572 11.6829 9.79417 11.2986 10.1373C10.9142 10.4805 10.6708 10.954 10.6153 11.4662C10.5598 11.9785 10.6963 12.4931 10.9982 12.9106C11.3002 13.3281 11.7462 13.6187 12.2501 13.7264L15.0001 14.3264C15.5624 14.4495 16.0594 14.7761 16.3956 15.2433C16.7317 15.7106 16.8834 16.2856 16.8214 16.8579C16.7593 17.4301 16.488 17.9593 16.0596 18.3437C15.6311 18.7281 15.0757 18.9406 14.5001 18.9404H12.9461C11.9301 18.9404 11.0661 18.2924 10.7461 17.3864M13.7241 9.60841V7.27441M13.7241 21.2744V18.9424M3.99609 27.5464V22.5464H8.99609" stroke="#999999" stroke-width="2" stroke-linecap="round" stroke-linejoin="round"/>
<path d="M26.7759 12.1582C27.3068 14.9887 26.8829 17.9153 25.5707 20.4787C24.2585 23.0422 22.1322 25.0974 19.5256 26.3217C16.919 27.546 13.9797 27.8702 11.169 27.2434C8.35824 26.6165 5.8352 25.0741 3.99586 22.8582M1.22386 16.9422C0.692905 14.1118 1.11681 11.1852 2.42903 8.62176C3.74126 6.05831 5.86752 4.00314 8.47409 2.7788C11.0807 1.55447 14.02 1.23029 16.8307 1.85714C19.6415 2.48399 22.1645 4.02639 24.0039 6.24225" stroke="#999999" stroke-width="2" stroke-linecap="round" stroke-linejoin="round"/>
<path d="M24.0039 1.5542V6.5542H19.0039" stroke="#999999" stroke-width="2" stroke-linecap="round" stroke-linejoin="round"/>
</svg>
