<svg width="34" height="24" viewBox="0 0 34 24" fill="none" xmlns="http://www.w3.org/2000/svg">
<path d="M21.5002 0C23.8736 0 26.1937 0.703788 28.1671 2.02236C30.1404 3.34094 31.6785 5.21509 32.5868 7.4078C33.495 9.60051 33.7327 12.0133 33.2696 14.3411C32.8066 16.6689 31.6637 18.8071 29.9855 20.4853C28.3073 22.1635 26.1691 23.3064 23.8413 23.7694C21.5135 24.2324 19.1007 23.9948 16.908 23.0866C14.7153 22.1783 12.8412 20.6402 11.5226 18.6668C10.204 16.6935 9.50022 14.3734 9.50022 12C9.50022 8.8174 10.7645 5.76516 13.0149 3.51472C15.2654 1.26428 18.3176 0 21.5002 0ZM3.50022 12C3.50234 13.8594 4.08032 15.6725 5.15471 17.1901C6.2291 18.7076 7.74716 19.8552 9.50022 20.475V23.61C6.93223 22.9388 4.65922 21.4352 3.03695 19.3344C1.41467 17.2336 0.534668 14.6543 0.534668 12C0.534668 9.34575 1.41467 6.76639 3.03695 4.66561C4.65922 2.56483 6.93223 1.06118 9.50022 0.39V3.525C7.74716 4.1448 6.2291 5.29235 5.15471 6.80993C4.08032 8.32751 3.50234 10.1406 3.50022 12Z" fill="white"/>
</svg>
