<svg width="50" height="51" viewBox="0 0 50 51" fill="none" xmlns="http://www.w3.org/2000/svg">
<path d="M16 38L25 29L34 38L37.5 34.5L28.5 25.5L37.5 16.5L34 13L25 22L16 13L12.5 16.5L21.5 25.5L12.5 34.5L16 38ZM25 50.5C21.5417 50.5 18.2917 49.8433 15.25 48.53C12.2083 47.2167 9.5625 45.4358 7.3125 43.1875C5.0625 40.9392 3.28167 38.2933 1.97 35.25C0.658337 32.2067 0.00166983 28.9567 3.16456e-06 25.5C-0.0016635 22.0433 0.655003 18.7933 1.97 15.75C3.285 12.7067 5.06584 10.0608 7.3125 7.8125C9.55917 5.56417 12.205 3.78333 15.25 2.47C18.295 1.15667 21.545 0.5 25 0.5C28.455 0.5 31.705 1.15667 34.75 2.47C37.795 3.78333 40.4408 5.56417 42.6875 7.8125C44.9342 10.0608 46.7158 12.7067 48.0325 15.75C49.3492 18.7933 50.005 22.0433 50 25.5C49.995 28.9567 49.3383 32.2067 48.03 35.25C46.7217 38.2933 44.9408 40.9392 42.6875 43.1875C40.4342 45.4358 37.7883 47.2175 34.75 48.5325C31.7117 49.8475 28.4617 50.5033 25 50.5ZM25 45.5C30.5833 45.5 35.3125 43.5625 39.1875 39.6875C43.0625 35.8125 45 31.0833 45 25.5C45 19.9167 43.0625 15.1875 39.1875 11.3125C35.3125 7.4375 30.5833 5.5 25 5.5C19.4167 5.5 14.6875 7.4375 10.8125 11.3125C6.9375 15.1875 5 19.9167 5 25.5C5 31.0833 6.9375 35.8125 10.8125 39.6875C14.6875 43.5625 19.4167 45.5 25 45.5Z" fill="#808080"/>
</svg>
