<svg width="59" height="51" viewBox="0 0 59 51" fill="none" xmlns="http://www.w3.org/2000/svg">
<path d="M54.5772 35.5393V33.1203C54.5772 35.9236 50.1656 38.1962 44.7235 38.1962C39.2815 38.1962 34.8698 35.9236 34.8698 33.1203C34.8698 32.465 35.1136 31.8393 35.5526 31.2642C34.0544 31.738 32.2921 32.0115 30.4053 32.0115C28.0194 32.0115 25.8317 31.5746 24.1268 30.8477V30.3276C25.8317 31.0545 28.0194 31.4914 30.4053 31.4914C32.6192 31.4914 34.6618 31.1147 36.307 30.4798C36.9626 29.9265 37.8177 29.4429 38.8211 29.0556C39.654 28.3526 40.1628 27.5372 40.2446 26.6638C40.2499 26.6074 40.2561 26.5512 40.2578 26.4943C40.2586 26.4681 40.259 26.4418 40.259 26.4156V23.9966C40.259 26.7999 35.8473 29.0724 30.4053 29.0724C28.0194 29.0724 25.8317 28.6355 24.1268 27.9086V27.4106C25.8317 28.1375 28.0194 28.5744 30.4053 28.5744C35.695 28.5744 40.0082 26.4269 40.2457 23.7323C40.2503 23.6807 40.2563 23.6293 40.2578 23.5773C40.2586 23.5511 40.259 23.5248 40.259 23.4985V21.0796C40.259 23.8829 35.8473 26.1554 30.4053 26.1554C24.9632 26.1554 20.5516 23.8829 20.5516 21.0796V23.3437C22.7353 24.2747 24.1268 25.6815 24.1268 27.2557C24.1268 30.059 19.7152 32.3316 14.2731 32.3316C8.83109 32.3316 4.41943 30.059 4.41943 27.2557V29.6747C4.41943 29.7582 4.42392 29.8412 4.43166 29.9237C4.68377 32.6113 8.99319 34.7506 14.2731 34.7506C19.5628 34.7506 23.876 32.6031 24.1135 29.9085C24.1223 29.996 24.1268 30.0841 24.1268 30.1727C24.1268 32.976 19.7152 35.2486 14.2731 35.2486C8.83112 35.2486 4.41946 32.976 4.41946 30.1727V32.5917C4.41946 32.6789 4.42381 32.7656 4.43222 32.8518C4.69508 35.5342 9.00045 37.6675 14.2731 37.6675C19.5534 37.6675 23.8608 35.5278 24.1124 32.8399C24.1217 32.93 24.1269 33.0206 24.1269 33.1118C24.1269 35.9152 19.7152 38.1877 14.2732 38.1877C8.83114 38.1877 4.41948 35.9151 4.41948 33.1118V35.5308C4.41948 35.6476 4.42992 35.7631 4.445 35.8779C4.79169 38.5191 9.05787 40.6067 14.2732 40.6067C19.4839 40.6067 23.7492 38.5231 24.1024 35.8852C24.1169 35.9976 24.1269 36.1107 24.1269 36.225C24.1269 39.0283 19.7152 41.3009 14.2732 41.3009C8.83117 41.3009 4.41951 39.0283 4.41951 36.225V38.644C4.41951 41.4473 8.83117 43.7199 14.2732 43.7199C19.6642 43.7199 24.0441 41.4898 24.1257 38.7227C24.1265 38.6965 24.1269 38.6703 24.1269 38.644V36.3799C25.8318 37.1068 28.0194 37.5437 30.4054 37.5437C32.013 37.5437 33.5293 37.3442 34.8699 36.9924V38.6525C34.8699 41.4558 39.2816 43.7283 44.7236 43.7283C50.1146 43.7283 54.4945 41.4982 54.5762 38.7312C54.5769 38.705 54.5773 38.6788 54.5773 38.6525V36.2335C54.5773 39.0368 50.1657 41.3094 44.7236 41.3094C39.2816 41.3094 34.8699 39.0368 34.8699 36.2335C34.8699 36.1167 34.8803 36.0012 34.8954 35.8864C35.2421 38.5276 39.5083 40.6151 44.7236 40.6151C49.9344 40.6151 54.1996 38.5315 54.5529 35.8936C54.5651 35.8023 54.5734 35.7105 54.5762 35.618C54.5769 35.5918 54.5772 35.5656 54.5772 35.5393Z" fill="url(#paint0_linear_21_60521)"/>
<path d="M24.127 33.2671V33.9613C25.8318 34.6882 28.0195 35.1252 30.4054 35.1252C32.0131 35.1252 33.5293 34.9256 34.87 34.5738V33.8796C33.5294 34.2313 32.0131 34.4309 30.4054 34.4309C28.0195 34.4309 25.8318 33.994 24.127 33.2671Z" fill="url(#paint1_linear_21_60521)"/>
<path d="M40.2589 28.5962V26.936C40.2589 27.5914 40.0152 28.2171 39.5762 28.7921C39.7978 28.7221 40.0262 28.6572 40.2589 28.5962Z" fill="url(#paint2_linear_21_60521)"/>
<path d="M44.7237 28.0447C43.116 28.0447 41.5998 28.2443 40.2591 28.5961C40.0264 28.6572 39.798 28.722 39.5764 28.7921C40.0153 28.217 40.2591 27.5914 40.2591 26.936C40.2591 26.8448 40.2539 26.7541 40.2447 26.6641C40.163 27.5375 39.6542 28.3529 38.8213 29.0559C37.8178 29.4431 36.9627 29.9268 36.3072 30.48C34.6619 31.115 32.6194 31.4917 30.4054 31.4917C28.0195 31.4917 25.8318 31.0547 24.127 30.3279V30.848C25.8318 31.5749 28.0195 32.0118 30.4054 32.0118C32.2922 32.0118 34.0546 31.7382 35.5527 31.2645C35.1138 31.8396 34.87 32.4652 34.87 33.1206C34.87 35.9239 39.2817 38.1964 44.7237 38.1964C50.1657 38.1964 54.5774 35.9239 54.5774 33.1206C54.5774 30.3173 50.1658 28.0447 44.7237 28.0447Z" fill="url(#paint3_linear_21_60521)"/>
<path d="M30.4054 28.5745C28.0195 28.5745 25.8318 28.1375 24.127 27.4107V27.9087C25.8318 28.6356 28.0195 29.0725 30.4054 29.0725C35.8475 29.0725 40.2591 26.8 40.2591 23.9967C40.2591 23.9081 40.2546 23.82 40.2458 23.7324C40.0083 26.427 35.6951 28.5745 30.4054 28.5745Z" fill="url(#paint4_linear_21_60521)"/>
<path d="M30.4054 26.1556C35.8475 26.1556 40.2591 23.883 40.2591 21.0797C40.2591 20.9911 40.2546 20.903 40.2459 20.8154C40.0084 23.5101 35.6952 25.6575 30.4054 25.6575C25.1255 25.6575 20.8161 23.5183 20.564 20.8307C20.5562 20.9132 20.5518 20.9962 20.5518 21.0797C20.5518 23.883 24.9634 26.1556 30.4054 26.1556Z" fill="url(#paint5_linear_21_60521)"/>
<path d="M30.4054 25.6574C35.6952 25.6574 40.0084 23.5099 40.2459 20.8153C40.2504 20.7637 40.2565 20.7123 40.258 20.6603C40.2588 20.6341 40.2591 20.6079 40.2591 20.5815V18.1626C40.2591 20.9659 35.8475 23.2385 30.4054 23.2385C24.9634 23.2385 20.5518 20.9659 20.5518 18.1626V20.5815C20.5518 20.665 20.5562 20.748 20.564 20.8306C20.8161 23.5182 25.1255 25.6574 30.4054 25.6574Z" fill="url(#paint6_linear_21_60521)"/>
<path d="M30.4054 23.2386C35.8475 23.2386 40.2591 20.966 40.2591 18.1627C40.2591 18.0741 40.2546 17.986 40.2459 17.8984C40.0084 20.593 35.6952 22.7405 30.4054 22.7405C25.1255 22.7405 20.8161 20.6013 20.564 17.9137C20.5562 17.9962 20.5518 18.0792 20.5518 18.1627C20.5518 20.966 24.9634 23.2386 30.4054 23.2386Z" fill="url(#paint7_linear_21_60521)"/>
<path d="M30.4054 22.7404C35.6952 22.7404 40.0084 20.5929 40.2459 17.8983C40.2504 17.8467 40.2565 17.7953 40.258 17.7433C40.2588 17.7171 40.2591 17.6909 40.2591 17.6646V15.2456C40.2591 18.0489 35.8475 20.3215 30.4054 20.3215C24.9634 20.3215 20.5518 18.049 20.5518 15.2456V17.6646C20.5518 17.7481 20.5562 17.831 20.564 17.9136C20.8161 20.6012 25.1255 22.7404 30.4054 22.7404Z" fill="url(#paint8_linear_21_60521)"/>
<path d="M30.4054 20.3216C35.8475 20.3216 40.2591 18.0491 40.2591 15.2457C40.2591 15.1571 40.2546 15.069 40.2459 14.9814C40.0084 17.676 35.6952 19.8235 30.4054 19.8235C25.1255 19.8235 20.8161 17.6843 20.564 14.9967C20.5562 15.0792 20.5518 15.1622 20.5518 15.2457C20.5518 18.0491 24.9634 20.3216 30.4054 20.3216Z" fill="url(#paint9_linear_21_60521)"/>
<path d="M30.4054 19.8239C35.6952 19.8239 40.0084 17.6765 40.2459 14.9818C40.2504 14.9302 40.2565 14.8788 40.258 14.8268C40.2588 14.8006 40.2591 14.7744 40.2591 14.7481V12.3291C40.2591 15.1324 35.8475 17.4049 30.4054 17.4049C24.9634 17.4049 20.5518 15.1324 20.5518 12.3291V14.7481C20.5518 14.8316 20.5562 14.9146 20.564 14.9971C20.8161 17.6847 25.1255 19.8239 30.4054 19.8239Z" fill="url(#paint10_linear_21_60521)"/>
<path d="M30.4054 17.4046C35.8475 17.4046 40.2591 15.1321 40.2591 12.3288C40.2591 9.52546 35.8475 7.25293 30.4054 7.25293C24.9634 7.25293 20.5518 9.52546 20.5518 12.3288C20.5518 15.1321 24.9634 17.4046 30.4054 17.4046Z" fill="url(#paint11_linear_21_60521)"/>
<path d="M30.4052 16.5982C34.9828 16.5982 38.6937 14.6867 38.6937 12.3286C38.6937 9.97063 34.9828 8.05908 30.4052 8.05908C25.8276 8.05908 22.1167 9.97063 22.1167 12.3286C22.1167 14.6867 25.8276 16.5982 30.4052 16.5982Z" fill="url(#paint12_linear_21_60521)"/>
<path d="M30.4054 16.0486C34.3936 16.0486 37.6267 14.3832 37.6267 12.3287C37.6267 10.2743 34.3936 8.60889 30.4054 8.60889C26.4172 8.60889 23.1841 10.2743 23.1841 12.3287C23.1841 14.3832 26.4172 16.0486 30.4054 16.0486Z" fill="#F59E0B"/>
<path d="M28.1992 14.5268C28.5254 14.6122 28.929 14.6736 29.3626 14.7123V15.2616H31.4483V14.7209C31.8463 14.6874 32.2097 14.633 32.4969 14.5561C33.236 14.3581 33.7181 13.8839 33.7551 13.3185C33.7913 12.7634 33.3865 12.2846 32.6985 12.0689C32.1871 11.9085 31.4434 11.7659 30.6561 11.615C29.9218 11.4742 29.0897 11.3146 28.7763 11.1911C28.692 11.1579 28.6497 11.0773 28.6658 10.9807C28.6927 10.819 28.8915 10.6096 29.2747 10.5064C29.726 10.3847 30.5068 10.3807 31.0905 10.4969C31.299 10.5384 31.6665 10.6328 31.7849 10.7994L33.283 10.5164C33.0346 10.1676 32.4602 9.88834 31.6655 9.73018C31.4365 9.6846 31.195 9.65091 30.9488 9.62774V9.08936H28.8632V9.7037C28.7488 9.72542 28.6389 9.75012 28.5351 9.7781C27.7147 9.99916 27.1557 10.433 27.0761 10.9104C27.012 11.2953 27.2783 11.6355 27.8067 11.8438C28.3095 12.042 29.179 12.2087 30.0995 12.3852C30.7819 12.5161 31.4876 12.6514 31.8688 12.771C31.9975 12.8113 32.179 13.0044 32.1603 13.2909C32.1418 13.5745 31.9407 13.7787 31.7607 13.8269C31.1998 13.9771 29.665 13.9886 28.9221 13.7941C28.6925 13.7339 28.6484 13.5145 28.6491 13.459L27.054 13.4393C27.0377 13.7275 27.2604 14.2809 28.1992 14.5268Z" fill="url(#paint13_linear_21_60521)"/>
<path d="M14.2731 41.3009C19.7152 41.3009 24.1268 39.0284 24.1268 36.2251C24.1268 36.1107 24.1169 35.9976 24.1024 35.8852C23.7492 38.5231 19.4839 40.6067 14.2731 40.6067C9.05785 40.6067 4.79164 38.5191 4.44495 35.8779C4.42987 35.9928 4.41943 36.1083 4.41943 36.2251C4.41943 39.0283 8.83109 41.3009 14.2731 41.3009Z" fill="url(#paint14_linear_21_60521)"/>
<path d="M14.2731 38.1881C19.7152 38.1881 24.1268 35.9156 24.1268 33.1123C24.1268 33.021 24.1216 32.9304 24.1124 32.8403C23.8608 35.5282 19.5534 37.6679 14.2731 37.6679C9.00043 37.6679 4.69506 35.5346 4.43219 32.8522C4.42379 32.9383 4.41943 33.025 4.41943 33.1123C4.41943 35.9156 8.83109 38.1881 14.2731 38.1881Z" fill="url(#paint15_linear_21_60521)"/>
<path d="M14.2731 35.2488C19.7152 35.2488 24.1268 32.9763 24.1268 30.173C24.1268 30.0843 24.1223 29.9962 24.1135 29.9087C23.876 32.6033 19.5628 34.7508 14.2731 34.7508C8.99319 34.7508 4.68378 32.6116 4.43166 29.9239C4.42392 30.0065 4.41943 30.0895 4.41943 30.173C4.41943 32.9763 8.83109 35.2488 14.2731 35.2488Z" fill="url(#paint16_linear_21_60521)"/>
<path d="M20.5516 23.344C18.8467 22.6171 16.659 22.1802 14.2731 22.1802C8.83109 22.1802 4.41943 24.4527 4.41943 27.256C4.41943 30.0593 8.83109 32.3319 14.2731 32.3319C19.7152 32.3319 24.1268 30.0593 24.1268 27.256C24.1268 25.6818 22.7353 24.275 20.5516 23.344Z" fill="url(#paint17_linear_21_60521)"/>
<path d="M14.2733 31.5255C18.8509 31.5255 22.5618 29.6139 22.5618 27.2559C22.5618 24.8979 18.8509 22.9863 14.2733 22.9863C9.69574 22.9863 5.98486 24.8979 5.98486 27.2559C5.98486 29.6139 9.69574 31.5255 14.2733 31.5255Z" fill="url(#paint18_linear_21_60521)"/>
<path d="M14.2731 30.9758C18.2613 30.9758 21.4944 29.3104 21.4944 27.256C21.4944 25.2016 18.2613 23.5361 14.2731 23.5361C10.2848 23.5361 7.05176 25.2016 7.05176 27.256C7.05176 29.3104 10.2848 30.9758 14.2731 30.9758Z" fill="#F59E0B"/>
<path d="M12.0668 29.454C12.3929 29.5394 12.7966 29.6008 13.2302 29.6395V30.1888H15.3159V29.6482C15.7139 29.6146 16.0772 29.5603 16.3645 29.4833C17.1036 29.2853 17.5857 28.8112 17.6226 28.2457C17.6589 27.6907 17.2541 27.2118 16.566 26.9961C16.0547 26.8358 15.311 26.6932 14.5237 26.5422C13.7895 26.4014 12.9573 26.2419 12.644 26.1183C12.5596 26.0851 12.5173 26.0045 12.5334 25.9079C12.5604 25.7462 12.7591 25.5369 13.1423 25.4336C13.5937 25.312 14.3744 25.3079 14.9581 25.4241C15.1666 25.4656 15.5341 25.5601 15.6526 25.7267L17.1506 25.4437C16.9023 25.0948 16.3279 24.8156 15.5331 24.6575C15.3042 24.6119 15.0627 24.5782 14.8165 24.555V24.0166H12.7308V24.6309C12.6164 24.6527 12.5065 24.6774 12.4027 24.7054C11.5824 24.9264 11.0234 25.3603 10.9438 25.8377C10.8797 26.2225 11.1459 26.5628 11.6743 26.771C12.1772 26.9693 13.0466 27.136 13.9671 27.3125C14.6496 27.4434 15.3552 27.5787 15.7365 27.6982C15.8651 27.7385 16.0467 27.9317 16.028 28.2181C16.0095 28.5017 15.8083 28.7059 15.6283 28.7541C15.0675 28.9044 13.5327 28.9159 12.7897 28.7213C12.5602 28.6612 12.516 28.4418 12.5167 28.3863L10.9217 28.3665C10.9053 28.6548 11.128 29.2081 12.0668 29.454Z" fill="url(#paint19_linear_21_60521)"/>
<path d="M44.7238 40.6155C39.5086 40.6155 35.2423 38.5279 34.8956 35.8867C34.8805 36.0016 34.8701 36.117 34.8701 36.2338C34.8701 39.0372 39.2818 41.3097 44.7238 41.3097C50.1659 41.3097 54.5775 39.0372 54.5775 36.2338C54.5775 36.1195 54.5675 36.0064 54.5531 35.894C54.1998 38.5319 49.9346 40.6155 44.7238 40.6155Z" fill="url(#paint20_linear_21_60521)"/>
<path d="M44.7235 37.3902C49.3012 37.3902 53.012 35.4787 53.012 33.1206C53.012 30.7626 49.3012 28.8511 44.7235 28.8511C40.1459 28.8511 36.4351 30.7626 36.4351 33.1206C36.4351 35.4787 40.1459 37.3902 44.7235 37.3902Z" fill="url(#paint21_linear_21_60521)"/>
<path d="M44.7238 36.8406C48.712 36.8406 51.9451 35.1751 51.9451 33.1207C51.9451 31.0663 48.712 29.4009 44.7238 29.4009C40.7355 29.4009 37.5024 31.0663 37.5024 33.1207C37.5024 35.1751 40.7355 36.8406 44.7238 36.8406Z" fill="#F59E0B"/>
<path d="M42.517 35.3183C42.8431 35.4037 43.2468 35.4651 43.6804 35.5038V36.053H45.7661V35.5124C46.1641 35.4788 46.5274 35.4245 46.8147 35.3476C47.5538 35.1496 48.0359 34.6754 48.0729 34.11C48.1091 33.5549 47.7043 33.0761 47.0163 32.8604C46.505 32.7001 45.7612 32.5575 44.9739 32.4065C44.2397 32.2657 43.4075 32.1061 43.0942 31.9826C43.0098 31.9494 42.9675 31.8688 42.9836 31.7722C43.0106 31.6105 43.2093 31.4011 43.5925 31.2979C44.0439 31.1762 44.8246 31.1722 45.4083 31.2884C45.6168 31.3299 45.9843 31.4243 46.1028 31.5909L47.6009 31.308C47.3525 30.9591 46.7781 30.6799 45.9834 30.5217C45.7544 30.4762 45.5129 30.4424 45.2667 30.4193V29.8809H43.181V30.4952C43.0666 30.5169 42.9568 30.5416 42.8529 30.5696C42.0326 30.7907 41.4736 31.2245 41.394 31.7019C41.3299 32.0868 41.5961 32.427 42.1245 32.6353C42.6274 32.8335 43.4968 33.0002 44.4173 33.1767C45.0998 33.3076 45.8054 33.4429 46.1867 33.5624C46.3153 33.6028 46.4969 33.7959 46.4782 34.0824C46.4597 34.366 46.2585 34.5702 46.0786 34.6184C45.5177 34.7686 43.9829 34.7801 43.24 34.5856C43.0104 34.5255 42.9663 34.306 42.967 34.2505L41.3719 34.2308C41.3554 34.519 41.5782 35.0724 42.517 35.3183Z" fill="url(#paint22_linear_21_60521)"/>
<defs>
<linearGradient id="paint0_linear_21_60521" x1="17.6273" y1="25.8041" x2="25.1707" y2="47.4125" gradientUnits="userSpaceOnUse">
<stop stop-color="#FFA800"/>
<stop offset="0.938927" stop-color="#FFC838"/>
</linearGradient>
<linearGradient id="paint1_linear_21_60521" x1="26.9559" y1="33.6547" x2="27.2171" y2="35.6085" gradientUnits="userSpaceOnUse">
<stop stop-color="#FFA800"/>
<stop offset="0.938927" stop-color="#FFC838"/>
</linearGradient>
<linearGradient id="paint2_linear_21_60521" x1="39.756" y1="27.3232" x2="40.5267" y2="27.69" gradientUnits="userSpaceOnUse">
<stop stop-color="#FFA800"/>
<stop offset="0.938927" stop-color="#FFC838"/>
</linearGradient>
<linearGradient id="paint3_linear_21_60521" x1="32.1453" y1="29.0697" x2="35.4741" y2="40.4386" gradientUnits="userSpaceOnUse">
<stop stop-color="#FFA800"/>
<stop offset="0.938927" stop-color="#FFC838"/>
</linearGradient>
<linearGradient id="paint4_linear_21_60521" x1="28.375" y1="24.8464" x2="29.7478" y2="30.2108" gradientUnits="userSpaceOnUse">
<stop stop-color="#FFA800"/>
<stop offset="0.938927" stop-color="#FFC838"/>
</linearGradient>
<linearGradient id="paint5_linear_21_60521" x1="25.7412" y1="21.9294" x2="26.8883" y2="27.4048" gradientUnits="userSpaceOnUse">
<stop stop-color="#FFA800"/>
<stop offset="0.938927" stop-color="#FFC838"/>
</linearGradient>
<linearGradient id="paint6_linear_21_60521" x1="25.7412" y1="19.726" x2="27.9121" y2="27.1097" gradientUnits="userSpaceOnUse">
<stop stop-color="#FFA800"/>
<stop offset="0.938927" stop-color="#FFC838"/>
</linearGradient>
<linearGradient id="paint7_linear_21_60521" x1="25.7412" y1="19.0124" x2="26.8883" y2="24.4878" gradientUnits="userSpaceOnUse">
<stop stop-color="#FFA800"/>
<stop offset="0.938927" stop-color="#FFC838"/>
</linearGradient>
<linearGradient id="paint8_linear_21_60521" x1="25.7412" y1="16.809" x2="27.9121" y2="24.1927" gradientUnits="userSpaceOnUse">
<stop stop-color="#FFA800"/>
<stop offset="0.938927" stop-color="#FFC838"/>
</linearGradient>
<linearGradient id="paint9_linear_21_60521" x1="25.7412" y1="16.0954" x2="26.8883" y2="21.5709" gradientUnits="userSpaceOnUse">
<stop stop-color="#FFA800"/>
<stop offset="0.938927" stop-color="#FFC838"/>
</linearGradient>
<linearGradient id="paint10_linear_21_60521" x1="25.7412" y1="13.8925" x2="27.9121" y2="21.2762" gradientUnits="userSpaceOnUse">
<stop stop-color="#FFA800"/>
<stop offset="0.938927" stop-color="#FFC838"/>
</linearGradient>
<linearGradient id="paint11_linear_21_60521" x1="25.7412" y1="9.37058" x2="29.4761" y2="18.7489" gradientUnits="userSpaceOnUse">
<stop stop-color="#FFA800"/>
<stop offset="0.938927" stop-color="#FFC838"/>
</linearGradient>
<linearGradient id="paint12_linear_21_60521" x1="26.4818" y1="9.84036" x2="29.6234" y2="17.729" gradientUnits="userSpaceOnUse">
<stop stop-color="#FFA800"/>
<stop offset="0.938927" stop-color="#FFC838"/>
</linearGradient>
<linearGradient id="paint13_linear_21_60521" x1="28.8186" y1="10.3769" x2="31.9396" y2="14.7618" gradientUnits="userSpaceOnUse">
<stop stop-color="#FFA800"/>
<stop offset="0.938927" stop-color="#FFC838"/>
</linearGradient>
<linearGradient id="paint14_linear_21_60521" x1="9.60889" y1="37.0092" x2="10.7902" y2="42.5622" gradientUnits="userSpaceOnUse">
<stop stop-color="#FFA800"/>
<stop offset="0.938927" stop-color="#FFC838"/>
</linearGradient>
<linearGradient id="paint15_linear_21_60521" x1="9.60889" y1="33.9559" x2="10.7591" y2="39.4385" gradientUnits="userSpaceOnUse">
<stop stop-color="#FFA800"/>
<stop offset="0.938927" stop-color="#FFC838"/>
</linearGradient>
<linearGradient id="paint16_linear_21_60521" x1="9.60889" y1="31.0226" x2="10.7559" y2="36.4981" gradientUnits="userSpaceOnUse">
<stop stop-color="#FFA800"/>
<stop offset="0.938927" stop-color="#FFC838"/>
</linearGradient>
<linearGradient id="paint17_linear_21_60521" x1="9.60889" y1="24.2978" x2="13.3438" y2="33.6762" gradientUnits="userSpaceOnUse">
<stop stop-color="#FFA800"/>
<stop offset="0.938927" stop-color="#FFC838"/>
</linearGradient>
<linearGradient id="paint18_linear_21_60521" x1="10.35" y1="24.7676" x2="13.4916" y2="32.6562" gradientUnits="userSpaceOnUse">
<stop stop-color="#FFA800"/>
<stop offset="0.938927" stop-color="#FFC838"/>
</linearGradient>
<linearGradient id="paint19_linear_21_60521" x1="12.6862" y1="25.3041" x2="15.8073" y2="29.689" gradientUnits="userSpaceOnUse">
<stop stop-color="#FFA800"/>
<stop offset="0.938927" stop-color="#FFC838"/>
</linearGradient>
<linearGradient id="paint20_linear_21_60521" x1="40.0596" y1="37.018" x2="41.2409" y2="42.5711" gradientUnits="userSpaceOnUse">
<stop stop-color="#FFA800"/>
<stop offset="0.938927" stop-color="#FFC838"/>
</linearGradient>
<linearGradient id="paint21_linear_21_60521" x1="40.8002" y1="30.6323" x2="43.9418" y2="38.521" gradientUnits="userSpaceOnUse">
<stop stop-color="#FFA800"/>
<stop offset="0.938927" stop-color="#FFC838"/>
</linearGradient>
<linearGradient id="paint22_linear_21_60521" x1="43.1364" y1="31.1684" x2="46.2575" y2="35.5532" gradientUnits="userSpaceOnUse">
<stop stop-color="#FFA800"/>
<stop offset="0.938927" stop-color="#FFC838"/>
</linearGradient>
</defs>
</svg>
