<svg width="30" height="28" viewBox="0 0 30 28" fill="none" xmlns="http://www.w3.org/2000/svg">
<path d="M3.00781 3.47363V24.4736H27.0078V3.47363H3.00781ZM1.50781 0.473633H28.5078C28.9056 0.473633 29.2872 0.631668 29.5685 0.912973C29.8498 1.19428 30.0078 1.57581 30.0078 1.97363V25.9736C30.0078 26.3715 29.8498 26.753 29.5685 27.0343C29.2872 27.3156 28.9056 27.4736 28.5078 27.4736H1.50781C1.10999 27.4736 0.728457 27.3156 0.447152 27.0343C0.165848 26.753 0.0078125 26.3715 0.0078125 25.9736V1.97363C0.0078125 1.57581 0.165848 1.19428 0.447152 0.912973C0.728457 0.631668 1.10999 0.473633 1.50781 0.473633ZM19.5078 6.47363L24.7578 10.9736L19.5078 15.4736V12.4736H13.5078V9.47363H19.5078V6.47363ZM10.5078 21.4736L5.25781 16.9736L10.5078 12.4736V15.4736H16.5078V18.4736H10.5078V21.4736Z" fill="#AF79F0"/>
</svg>
