<svg width="31" height="30" viewBox="0 0 31 30" fill="none" xmlns="http://www.w3.org/2000/svg">
<path fill-rule="evenodd" clip-rule="evenodd" d="M0.5 15C0.5 6.7155 7.2155 0 15.5 0C23.7845 0 30.5 6.7155 30.5 15C30.5 23.2845 23.7845 30 15.5 30C7.2155 30 0.5 23.2845 0.5 15ZM15.5 3C12.3174 3 9.26515 4.26428 7.01472 6.51472C4.76428 8.76515 3.5 11.8174 3.5 15C3.5 18.1826 4.76428 21.2348 7.01472 23.4853C9.26515 25.7357 12.3174 27 15.5 27C18.6826 27 21.7348 25.7357 23.9853 23.4853C26.2357 21.2348 27.5 18.1826 27.5 15C27.5 11.8174 26.2357 8.76515 23.9853 6.51472C21.7348 4.26428 18.6826 3 15.5 3Z" fill="#8837E9"/>
<path fill-rule="evenodd" clip-rule="evenodd" d="M17 7.5C17 7.10218 16.842 6.72064 16.5607 6.43934C16.2794 6.15804 15.8978 6 15.5 6C15.1022 6 14.7206 6.15804 14.4393 6.43934C14.158 6.72064 14 7.10218 14 7.5V13.5H8C7.60218 13.5 7.22064 13.658 6.93934 13.9393C6.65804 14.2206 6.5 14.6022 6.5 15C6.5 15.3978 6.65804 15.7794 6.93934 16.0607C7.22064 16.342 7.60218 16.5 8 16.5H14V22.5C14 22.8978 14.158 23.2794 14.4393 23.5607C14.7206 23.842 15.1022 24 15.5 24C15.8978 24 16.2794 23.842 16.5607 23.5607C16.842 23.2794 17 22.8978 17 22.5V16.5H23C23.3978 16.5 23.7794 16.342 24.0607 16.0607C24.342 15.7794 24.5 15.3978 24.5 15C24.5 14.6022 24.342 14.2206 24.0607 13.9393C23.7794 13.658 23.3978 13.5 23 13.5H17V7.5Z" fill="#8837E9"/>
</svg>
