<svg width="40" height="40" viewBox="0 0 40 40" fill="none" xmlns="http://www.w3.org/2000/svg">
<path d="M12.8 30L20 22.8L27.2 30L30 27.2L22.8 20L30 12.8L27.2 10L20 17.2L12.8 10L10 12.8L17.2 20L10 27.2L12.8 30ZM20 40C17.2333 40 14.6333 39.4747 12.2 38.424C9.76667 37.3733 7.65 35.9487 5.85 34.15C4.05 32.3513 2.62534 30.2347 1.576 27.8C0.526669 25.3653 0.00133587 22.7653 2.53164e-06 20C-0.0013308 17.2347 0.524003 14.6347 1.576 12.2C2.628 9.76533 4.05267 7.64867 5.85 5.85C7.64734 4.05133 9.764 2.62667 12.2 1.576C14.636 0.525334 17.236 0 20 0C22.764 0 25.364 0.525334 27.8 1.576C30.236 2.62667 32.3527 4.05133 34.15 5.85C35.9473 7.64867 37.3727 9.76533 38.426 12.2C39.4793 14.6347 40.004 17.2347 40 20C39.996 22.7653 39.4707 25.3653 38.424 27.8C37.3773 30.2347 35.9527 32.3513 34.15 34.15C32.3473 35.9487 30.2307 37.374 27.8 38.426C25.3693 39.478 22.7693 40.0027 20 40Z" fill="#FF3B30"/>
</svg>
