<svg width="21" height="12" viewBox="0 0 21 12" fill="none" xmlns="http://www.w3.org/2000/svg">
<path d="M10.333 0.214844C4.67351 0.214844 0.208008 6.00034 0.208008 6.00034C0.208008 6.00034 4.67351 11.7866 10.333 11.7866C14.6605 11.7866 20.458 6.00034 20.458 6.00034C20.458 6.00034 14.6605 0.214844 10.333 0.214844ZM10.333 9.60484C8.34551 9.60484 6.72776 7.98784 6.72776 6.00034C6.72776 4.01284 8.34551 2.39509 10.333 2.39509C12.3205 2.39509 13.9383 4.01284 13.9383 6.00034C13.9383 7.98784 12.3205 9.60484 10.333 9.60484ZM10.333 3.89584C10.0533 3.89056 9.77544 3.94109 9.51553 4.04446C9.25562 4.14783 9.01893 4.30197 8.81929 4.49788C8.61964 4.69379 8.46106 4.92753 8.3528 5.18544C8.24454 5.44335 8.18878 5.72026 8.18878 5.99997C8.18878 6.27968 8.24454 6.55658 8.3528 6.81449C8.46106 7.0724 8.61964 7.30615 8.81929 7.50205C9.01893 7.69796 9.25562 7.85211 9.51553 7.95548C9.77544 8.05885 10.0533 8.10937 10.333 8.10409C10.8842 8.09369 11.4093 7.86743 11.7954 7.47396C12.1815 7.08049 12.3978 6.55124 12.3978 5.99997C12.3978 5.4487 12.1815 4.91944 11.7954 4.52597C11.4093 4.13251 10.8842 3.90625 10.333 3.89584Z" fill="#8837E9"/>
</svg>
