<svg width="28" height="28" viewBox="0 0 28 28" fill="none" xmlns="http://www.w3.org/2000/svg">
<path fill-rule="evenodd" clip-rule="evenodd" d="M19.994 0.440908C20.204 0.230324 20.4718 0.0868995 20.7634 0.028854C21.0551 -0.0291915 21.3574 0.0007613 21.632 0.114908L25.886 1.87891C26.2529 2.03039 26.5447 2.32109 26.6977 2.68733C26.8506 3.05358 26.8522 3.46552 26.702 3.83291L24.964 8.08691C24.8517 8.3616 24.6605 8.59682 24.4145 8.7628C24.1685 8.92878 23.8788 9.01806 23.582 9.01934C23.2853 9.02063 22.9948 8.93386 22.7474 8.77002C22.4999 8.60617 22.3067 8.37262 22.192 8.09891L21.506 6.45891L4.23 13.8409C4.04878 13.9184 3.85407 13.9594 3.65699 13.9616C3.45991 13.9639 3.26432 13.9273 3.08139 13.8539C2.89845 13.7806 2.73176 13.6719 2.59083 13.5341C2.4499 13.3963 2.33748 13.2321 2.26 13.0509C2.18252 12.8697 2.14149 12.675 2.13926 12.4779C2.13703 12.2808 2.17364 12.0852 2.247 11.9023C2.32036 11.7194 2.42903 11.5527 2.56681 11.4117C2.70459 11.2708 2.86878 11.1584 3.05 11.0809L20.348 3.69091L19.674 2.08091C19.5587 1.80663 19.5275 1.50425 19.5845 1.21222C19.6415 0.920195 19.784 0.651709 19.994 0.440908ZM25.5 10.9609C26.0304 10.9609 26.5391 11.1716 26.9142 11.5467C27.2893 11.9218 27.5 12.4305 27.5 12.9609V26.9609C27.5 27.2261 27.3946 27.4805 27.2071 27.668C27.0196 27.8556 26.7652 27.9609 26.5 27.9609H21.5C21.2348 27.9609 20.9804 27.8556 20.7929 27.668C20.6054 27.4805 20.5 27.2261 20.5 26.9609V12.9609C20.5 12.4305 20.7107 11.9218 21.0858 11.5467C21.4609 11.1716 21.9696 10.9609 22.5 10.9609H25.5ZM16.914 14.5449C16.5387 14.1705 16.0301 13.9605 15.5 13.9609H12.5C11.9696 13.9609 11.4609 14.1716 11.0858 14.5467C10.7107 14.9218 10.5 15.4305 10.5 15.9609V26.9609C10.5 27.2261 10.6054 27.4805 10.7929 27.668C10.9804 27.8556 11.2348 27.9609 11.5 27.9609H16.5C16.7652 27.9609 17.0196 27.8556 17.2071 27.668C17.3946 27.4805 17.5 27.2261 17.5 26.9609V15.9609C17.5002 15.6979 17.4486 15.4375 17.348 15.1946C17.2474 14.9516 17.1 14.7308 16.914 14.5449ZM5.5 16.9609C6.03043 16.9609 6.53914 17.1716 6.91421 17.5467C7.28929 17.9218 7.5 18.4305 7.5 18.9609V26.9609C7.5 27.2261 7.39464 27.4805 7.20711 27.668C7.01957 27.8556 6.76522 27.9609 6.5 27.9609H1.5C1.23478 27.9609 0.98043 27.8556 0.792893 27.668C0.605357 27.4805 0.5 27.2261 0.5 26.9609V18.9609C0.5 18.4305 0.710714 17.9218 1.08579 17.5467C1.46086 17.1716 1.96957 16.9609 2.5 16.9609H5.5Z" fill="#1C64F2"/>
</svg>
