<svg width="138" height="52" viewBox="0 0 138 52" fill="none" xmlns="http://www.w3.org/2000/svg">
<g clip-path="url(#clip0_59_72412)">
<path d="M1.461 23.1807C1.461 23.1807 1.16869 23.3043 1.05627 22.9446C1.22491 22.6635 0.291761 20.1451 9.21848 18.4475C18.7973 17.0759 23.5417 19.0546 23.3955 18.9421C19.2681 17.4634 14.8511 16.9743 10.5001 17.5143C2.99001 18.4812 1.41603 19.9652 0.381703 22.0114C0.381703 22.0114 0.0669068 19.122 0.0556641 18.6386C0.12312 18.4025 1.91071 14.5238 11.8605 13.3095C8.1743 13.2456 4.5428 14.207 1.37106 16.0865C1.37106 16.0865 1.13496 15.1758 2.67522 14.0516C5.96253 12.0654 9.71792 10.9869 13.5582 10.9261C16.446 10.814 19.33 11.2293 22.0689 12.1516C24.5873 13.0397 26.0938 14.2877 25.9814 15.3445C25.9672 15.6647 25.8988 15.9803 25.779 16.2776C25.779 16.2776 27.2968 16.6936 27.0607 18.8297C26.8246 20.9658 26.982 23.102 25.9364 23.0233C25.7902 23.1469 24.5648 20.8984 13.5694 20.7747C2.64149 21.1457 1.60716 23.3156 1.461 23.1807Z" fill="white"/>
<path d="M4.68806 35.4154C4.63844 35.3602 4.5859 35.3077 4.53066 35.258C4.45364 35.1943 4.37083 35.1378 4.28332 35.0894C4.21871 35.0512 4.14475 35.0318 4.06971 35.0332C4.03907 35.0322 4.00902 35.0417 3.9845 35.0601C3.95997 35.0785 3.94245 35.1047 3.9348 35.1344C3.85855 35.3469 3.79842 35.5649 3.75491 35.7864C3.75491 35.8876 3.75491 35.9776 3.6987 36.0787C3.55254 35.0894 3.40639 34.0775 3.27148 33.0769C2.78804 29.6142 2.37206 26.1402 2.02354 22.8348C2.02354 22.4975 1.95608 22.1715 1.93359 21.8455L2.99041 21.6094C2.99041 21.8567 2.99041 22.104 3.06911 22.3401C3.14781 22.5762 3.06911 22.7674 3.12532 22.981L3.22651 23.9254C3.55254 26.9047 3.9348 29.9964 4.35078 33.0545L4.68806 35.4154Z" fill="white"/>
<path d="M5.21614 38.9102L5.13744 39.1463C5.10636 39.2425 5.06088 39.3335 5.00253 39.4161C4.96624 39.4754 4.92069 39.5286 4.86762 39.5735C4.84165 39.5873 4.81269 39.5945 4.78329 39.5945C4.75389 39.5945 4.72494 39.5873 4.69897 39.5735C4.64589 39.5412 4.5997 39.4988 4.56304 39.4486C4.52639 39.3985 4.49999 39.3416 4.48536 39.2812C4.43876 39.0972 4.41237 38.9087 4.40666 38.7191C4.39049 38.4757 4.39049 38.2316 4.40666 37.9883C4.40666 37.7185 4.46288 37.4599 4.50785 37.2013C4.55282 36.9427 4.62027 36.7066 4.68773 36.4705C4.75519 36.2344 4.74395 36.2682 4.77767 36.1895C4.93507 37.1114 5.08123 38.0108 5.21614 38.9102Z" fill="white"/>
<path d="M21.8 40.1379V40.2053C21.7945 40.1605 21.7945 40.1152 21.8 40.0704L21.9124 39.9805L21.8 40.1379Z" fill="white"/>
<path d="M22.8225 40.1579C22.6089 41.4845 22.3953 42.7774 22.1817 44.0479C21.7432 46.5325 21.2935 48.8822 20.8325 51.0296C15.8993 51.6368 10.8939 51.2235 6.12706 49.8154C5.66611 47.7242 5.2164 45.442 4.78917 43.0698C4.60929 42.0129 4.41816 40.9224 4.23828 39.8094C4.34968 39.9106 4.49269 39.9702 4.64302 39.978C4.71631 39.988 4.79091 39.981 4.86108 39.9576C4.93124 39.9342 4.99511 39.8951 5.04776 39.8431C5.13029 39.757 5.1986 39.6583 5.25013 39.5508C5.46374 40.8887 5.67735 42.1928 5.90221 43.452L6.10457 44.5763C6.38564 46.1503 6.67795 47.6568 6.97026 49.0734C11.1483 50.4406 15.5923 50.7913 19.9331 50.0965C20.2142 48.7248 20.4953 47.2745 20.7651 45.7568C20.855 45.2958 20.9337 44.8236 21.0124 44.3514C21.1848 43.3621 21.3534 42.3502 21.5183 41.3159L21.732 41.0798L22.1817 40.5064C22.4075 40.4143 22.6224 40.2974 22.8225 40.1579Z" fill="white"/>
<path d="M22.9912 39.293L22.9237 39.7314C22.8212 39.8116 22.7121 39.883 22.5977 39.945L22.8113 39.6078L22.9912 39.293Z" fill="white"/>
<path d="M23.182 38.0117V38.349C23.1146 38.2953 23.0321 38.2638 22.9459 38.2591C22.8672 38.2591 22.7998 38.3153 22.7548 38.4277L22.6761 38.5851C22.6761 38.6638 22.5862 38.765 22.5187 38.8774L22.3051 39.2259C22.2152 39.3384 22.1365 39.4508 22.0465 39.552L21.9229 39.6869L22.0915 38.5626C22.1786 38.4719 22.2768 38.3926 22.3838 38.3265C22.5582 38.1951 22.7569 38.0996 22.9684 38.0454C23.0379 38.0251 23.1097 38.0137 23.182 38.0117Z" fill="white"/>
<path d="M25.184 21.5978L25.0828 22.5535C24.7455 26.1511 24.307 29.895 23.8124 33.6051C23.6325 34.943 23.4413 36.2696 23.2502 37.5738C23.1343 37.5627 23.0176 37.5627 22.9017 37.5738C22.6424 37.583 22.387 37.6402 22.1484 37.7424C22.362 36.3595 22.5532 34.9429 22.7443 33.5264C23.1828 30.2322 23.5875 26.8932 23.8686 23.644C23.9248 23.1381 23.9698 22.6434 24.0147 22.1487C24.0147 21.9014 24.0147 21.6541 24.0934 21.418L25.184 21.5978Z" fill="white"/>
<path d="M2.51855 23.1154C2.92329 23.0142 3.33927 22.9355 3.77774 22.8681C4.2162 22.8006 4.65467 22.7219 5.11562 22.6657C6.06667 22.5505 7.02611 22.5204 7.98251 22.5757C7.03636 22.7085 6.10348 22.9229 5.19432 23.2166C4.75585 23.3515 4.33988 23.4976 3.93514 23.655C3.5304 23.8124 3.12566 23.9586 2.81087 24.116C2.67595 23.7787 2.59725 23.4527 2.51855 23.1154Z" fill="white"/>
<path d="M24.4303 23.8125C23.7333 23.5652 22.9575 23.3178 22.1818 23.093C21.406 22.8681 20.5066 22.6433 19.6185 22.4634C18.7303 22.2835 17.8084 22.1036 16.864 21.98C15.9057 21.8554 14.9409 21.7879 13.9746 21.7776C14.9395 21.6412 15.9121 21.5661 16.8865 21.5527C17.8421 21.5527 18.7865 21.5527 19.7084 21.6202C20.6303 21.6876 21.5072 21.7663 22.3504 21.8788C23.1936 21.9912 23.9919 22.1149 24.7451 22.2723C24.6215 22.7782 24.5315 23.2953 24.4303 23.8125Z" fill="white"/>
<path d="M21.4166 45.5443L21.1581 45.6343L20.922 45.7017L20.4723 45.8142C20.165 45.8816 19.8614 45.9378 19.5616 45.9828C18.9618 46.0724 18.3575 46.1287 17.7515 46.1515C17.1444 46.1515 16.5485 46.1515 15.9414 46.1515L15.0308 46.084L14.1201 45.9828L15.0308 45.9266L15.9302 45.8254C16.5373 45.7467 17.1332 45.6343 17.7178 45.4994C18.3118 45.365 18.8974 45.1961 19.4717 44.9935C19.764 44.8923 20.045 44.7911 20.3261 44.6674L20.7308 44.4875L20.9332 44.3863C20.9923 44.3576 21.0487 44.3237 21.1018 44.2852C21.203 44.7574 21.3155 45.1284 21.4166 45.5443Z" fill="white"/>
<path d="M5.67791 43.252C5.9927 43.4543 6.32998 43.6454 6.66726 43.8253C7.00455 44.0052 7.33059 44.1963 7.66787 44.365C8.33581 44.7058 9.0271 44.9989 9.73653 45.2419C9.02539 45.1874 8.31905 45.0822 7.6229 44.9271L6.56608 44.6685L5.52051 44.3537C5.57672 43.9827 5.57672 43.6342 5.67791 43.252Z" fill="white"/>
<path d="M20.0679 7.45365C20.0679 8.28561 20.1354 9.14006 20.1578 10.017C20.1607 10.0543 20.1547 10.0917 20.1403 10.1262C20.1259 10.1607 20.1035 10.1913 20.075 10.2154C20.0464 10.2396 20.0125 10.2566 19.9761 10.2651C19.9397 10.2736 19.9018 10.2733 19.8655 10.2643C18.9661 10.1744 18.0555 10.1069 17.1223 10.0732C16.5152 10.6128 15.9081 11.1975 15.2897 11.7371L14.9187 11.3998C15.5371 10.8152 16.1442 10.2756 16.7513 9.72467C16.7513 8.89271 16.7513 8.072 16.6951 7.27376L15.7507 6.45303C14.4241 6.45303 13.0749 6.52049 11.7483 6.63292C11.7133 6.64117 11.6769 6.64168 11.6417 6.63443C11.6065 6.62718 11.5732 6.61233 11.5443 6.59092C11.5154 6.56952 11.4916 6.54207 11.4744 6.51048C11.4572 6.4789 11.447 6.44396 11.4447 6.40807C11.4447 5.2838 11.4447 4.21574 11.501 3.21514L10.9725 2.84413L9.31986 3.06898C9.15122 3.06898 9.02755 3.06898 9.0388 2.88909L9.10625 1.60742C9.10625 1.495 9.24116 1.38257 9.4098 1.36008C9.9607 1.28138 10.5341 1.2027 11.0737 1.14648C11.2311 1.14648 11.366 1.14648 11.3548 1.31512V2.54057L11.8944 2.90035C13.1649 2.77668 14.4353 2.70922 15.7057 2.68673C15.7456 2.68037 15.7864 2.68204 15.8257 2.69165C15.865 2.70127 15.9019 2.71862 15.9344 2.74271C15.9668 2.76679 15.9942 2.79712 16.0148 2.83191C16.0353 2.8667 16.0488 2.90526 16.0543 2.94531C16.0543 3.95715 16.1105 5.02522 16.1442 6.14949L17.0773 6.9702C17.9992 6.9702 18.9099 7.06015 19.7981 7.15009C19.8691 7.16614 19.9334 7.20405 19.9818 7.25849C20.0302 7.31294 20.0603 7.3812 20.0679 7.45365Z" fill="white"/>
<path d="M10.7364 7.21765C10.0731 7.29635 9.40973 7.3863 8.75766 7.48748C8.68024 7.50103 8.60912 7.53881 8.55457 7.59539C8.50001 7.65196 8.46483 7.72442 8.4541 7.80227C8.4541 8.37565 8.4541 8.92654 8.4541 9.53365C8.45481 9.5705 8.46375 9.60674 8.48026 9.6397C8.49678 9.67265 8.52045 9.7015 8.54954 9.72414C8.57864 9.74677 8.61243 9.7626 8.64844 9.77049C8.68444 9.77838 8.72176 9.77814 8.75766 9.76975C9.40973 9.66857 10.0731 9.57861 10.7476 9.51116C10.8269 9.50408 10.9013 9.47012 10.9585 9.4149C11.0158 9.35968 11.0525 9.28654 11.0624 9.20761C11.0624 8.61175 11.0624 8.08335 11.0624 7.45375C11.0399 7.3076 10.905 7.20641 10.7364 7.21765Z" fill="white"/>
<path d="M12.5018 0.910731H13.1988C13.3562 0.910731 13.4911 0.798307 13.4911 0.68588V0.191198C13.4911 0.0900135 13.3562 0.0113127 13.1988 0.0225554H12.513C12.3556 0.0225554 12.2207 0.134988 12.2207 0.247415C12.2207 0.359842 12.2207 0.573446 12.2207 0.730844C12.2207 0.888242 12.3219 0.966945 12.5018 0.910731Z" fill="white"/>
<path d="M19.6743 4.2055H19.0672C19.0327 4.19879 18.9971 4.1999 18.963 4.20872C18.929 4.21754 18.8973 4.23387 18.8704 4.2565C18.8434 4.27913 18.8219 4.30748 18.8073 4.33951C18.7928 4.37154 18.7855 4.40642 18.7862 4.4416C18.7862 4.61024 18.7862 4.79013 18.7862 4.95877C18.7964 5.03351 18.8323 5.10235 18.8877 5.1536C18.943 5.20485 19.0144 5.23534 19.0897 5.23984L19.6968 5.29604C19.8655 5.29604 19.9891 5.20611 19.9779 5.05995C19.9667 4.9138 19.9779 4.71143 19.9779 4.53154C19.9756 4.44959 19.9435 4.37128 19.8876 4.31127C19.8317 4.25127 19.7559 4.21366 19.6743 4.2055Z" fill="white"/>
<path d="M21.6307 5.71104C21.2784 5.65108 20.9299 5.6061 20.5851 5.57612C20.5518 5.5669 20.5168 5.56588 20.4831 5.57315C20.4493 5.58042 20.4178 5.59577 20.3913 5.61787C20.3648 5.63998 20.344 5.66819 20.3308 5.70008C20.3175 5.73197 20.3122 5.7666 20.3153 5.80099C20.3153 6.11578 20.3153 6.44181 20.3153 6.75661C20.3181 6.83622 20.351 6.91183 20.4073 6.96816C20.4636 7.0245 20.5392 7.05737 20.6189 7.06017L21.6532 7.20633C21.6865 7.21555 21.7215 7.21657 21.7552 7.20929C21.789 7.20202 21.8205 7.18668 21.847 7.16457C21.8735 7.14247 21.8943 7.11425 21.9075 7.08236C21.9208 7.05047 21.9261 7.01585 21.923 6.98146C21.923 6.65542 21.923 6.32938 21.923 6.01458C21.916 5.93832 21.8832 5.86671 21.8301 5.81154C21.777 5.75637 21.7066 5.72093 21.6307 5.71104Z" fill="white"/>
<path d="M8.06075 6.99497C8.06075 6.59023 8.06075 6.18548 8.11696 5.79199C8.11696 5.65707 7.99329 5.56713 7.82465 5.60086L6.4418 5.88193C6.36696 5.90105 6.29893 5.94062 6.24532 5.99622C6.1917 6.05182 6.15463 6.12125 6.13824 6.19673C6.13824 6.59022 6.13824 6.99497 6.08203 7.3997C6.08203 7.54586 6.2057 7.62456 6.3631 7.59083L7.7572 7.30976C7.83535 7.29792 7.90743 7.26068 7.96229 7.20378C8.01716 7.14688 8.05176 7.0735 8.06075 6.99497Z" fill="white"/>
<path d="M25.3304 34.3935C24.9256 37.2604 24.4647 40.1497 23.9587 42.9267C23.9299 43.0816 23.8636 43.2272 23.7656 43.3506C23.6676 43.4741 23.5409 43.5717 23.3966 43.635C23.1155 43.7362 22.7221 43.8823 22.2161 44.0285L21.0919 44.3208C18.6387 44.9355 16.1065 45.1743 13.5817 45.0291C11.0292 44.8423 8.514 44.309 6.10531 43.4439L5.80176 43.3314C5.49821 43.2303 5.21714 43.1178 4.95856 43.0166C4.40767 42.803 3.9692 42.6119 3.66564 42.4658C3.52282 42.3943 3.39805 42.2915 3.30068 42.1649C3.20332 42.0383 3.13591 41.8913 3.10351 41.735C2.60883 39.1042 2.17036 36.3834 1.76562 33.6964C1.76562 33.3816 1.86681 33.1343 2.12539 33.123H3.40706H4.53133C6.48757 33.123 9.53434 33.1231 13.6941 33.1905C17.854 33.258 20.9794 33.4378 22.9132 33.584L24.0374 33.6739C24.5771 33.6739 24.9594 33.7751 25.1617 33.8201C25.3641 33.8651 25.3866 34.0562 25.3304 34.3935Z" fill="white"/>
<path d="M37.5841 32.3911L37.2356 32.2224C35.3693 31.368 34.4249 30.4461 34.4249 29.4792C34.4105 29.2074 34.4577 28.9358 34.5628 28.6847C34.6679 28.4336 34.8283 28.2094 35.032 28.0289C35.5051 27.6401 36.1071 27.4435 36.7184 27.478C37.1839 27.4732 37.6421 27.5936 38.0451 27.8265C38.5041 28.1063 38.8895 28.4918 39.1693 28.9508L39.248 29.0632L41.5528 27.894V27.7703C41.2296 26.8497 40.5821 26.0783 39.7315 25.6005C38.7351 25.0758 37.619 24.8201 36.4936 24.8585C35.1006 24.7993 33.7375 25.2737 32.6823 26.1851C32.1989 26.6264 31.8177 27.1679 31.5652 27.7719C31.3128 28.3758 31.1952 29.0275 31.2207 29.6816C31.1942 30.7043 31.5375 31.7023 32.1876 32.4923C33.2909 33.5718 34.5877 34.4338 36.0101 35.0331C36.1338 35.0331 36.3025 35.168 36.5385 35.2805C38.1463 36.045 38.9557 36.8994 38.9557 37.8438C38.9717 38.1646 38.9188 38.4852 38.8005 38.7838C38.6822 39.0825 38.5013 39.3523 38.2699 39.5752C37.7588 40.0311 37.0875 40.2657 36.4036 40.2272C35.6709 40.2585 34.947 40.0579 34.335 39.6539C33.779 39.2461 33.3816 38.658 33.2107 37.9899V37.8213L30.7373 38.9456V39.058C30.9775 40.2441 31.6508 41.2983 32.6261 42.0148C33.7066 42.7409 34.9906 43.1032 36.2912 43.0492C37.838 43.1251 39.3537 42.597 40.5185 41.5764C41.0468 41.0663 41.4604 40.4496 41.7317 39.7672C42.0031 39.0848 42.1261 38.3525 42.0924 37.6189C42.1231 36.5732 41.7758 35.5514 41.1143 34.7408C40.1109 33.7241 38.9093 32.9244 37.5841 32.3911Z" fill="white"/>
<path d="M48.6689 25.207H45.5996V42.577H48.6689V25.207Z" fill="white"/>
<path d="M52.7957 25.207V27.8603H59.9348L51.2217 42.5883H64.7017V39.8113H56.0785L64.7017 25.207H52.7957Z" fill="white"/>
<path d="M67.5801 42.5883H77.395V39.8113H70.6381V35.1906H76.5405V32.4586H70.6381V27.8603H77.395V25.207H67.5801V42.5883Z" fill="white"/>
<path d="M91.0213 35.3471C91.0213 35.4483 90.8976 35.6057 90.8077 35.8081C90.5379 36.3927 90.3243 36.8986 90.1669 37.3259C89.9982 36.8986 89.8521 36.5276 89.7172 36.2016C89.5822 35.8755 89.4473 35.5158 89.3686 35.3359L84.1408 24.1719L79.9697 42.565H82.8254L84.6804 34.043C84.7806 33.6319 84.8557 33.2152 84.9053 32.795C84.9053 32.6714 84.9053 32.5477 84.9053 32.424C84.9053 32.5365 84.9952 32.6489 85.0289 32.7613C85.1751 33.1211 85.3325 33.5033 85.5236 33.8856L90.1219 43.4419L94.7202 34.0767C94.9099 33.6826 95.0751 33.277 95.2149 32.8625C95.2149 32.7276 95.3048 32.5927 95.3385 32.4578C95.3385 32.5927 95.3385 32.7501 95.3385 32.9075C95.406 33.5146 95.4622 33.8856 95.4959 34.0317L97.4072 42.5762H100.285L96.0131 24.1831L91.0213 35.3471Z" fill="white"/>
<path d="M113.755 35.7615C113.846 36.9758 113.477 38.1799 112.72 39.1343C111.855 39.8529 110.765 40.2462 109.64 40.2462C108.515 40.2462 107.425 39.8529 106.559 39.1343C105.803 38.1799 105.434 36.9758 105.525 35.7615V25.2383H102.501V36.02C102.429 36.9765 102.549 37.9377 102.854 38.8471C103.159 39.7565 103.643 40.5957 104.277 41.3154C105.835 42.4589 107.718 43.0755 109.651 43.0755C111.584 43.0755 113.467 42.4589 115.025 41.3154C115.664 40.6004 116.151 39.7638 116.458 38.8558C116.765 37.9478 116.886 36.9871 116.813 36.0313V25.2495H113.755V35.7615Z" fill="white"/>
<path d="M137.038 34.1666C137.038 33.9642 137.038 33.7955 137.038 33.6831V33.5145H129.977V36.1453H134.081V36.2577C134.103 36.8108 133.997 37.3615 133.77 37.8666C133.544 38.3718 133.204 38.8178 132.777 39.1696C131.713 39.9338 130.419 40.3107 129.112 40.2376C128.281 40.2752 127.452 40.1385 126.677 39.8364C125.903 39.5344 125.2 39.0736 124.614 38.4838C124.037 37.8694 123.588 37.1466 123.293 36.3572C122.998 35.5678 122.862 34.7277 122.894 33.8855C122.868 33.0592 123.006 32.2358 123.301 31.4637C123.597 30.6915 124.043 29.986 124.614 29.3884C125.196 28.8128 125.888 28.3622 126.65 28.0644C127.412 27.7667 128.227 27.628 129.044 27.657C129.859 27.6439 130.668 27.8049 131.416 28.1292C132.149 28.472 132.797 28.9708 133.316 29.5908L133.406 29.692L135.655 27.9831L135.554 27.8706C134.767 26.9183 133.781 26.1506 132.664 25.6221C131.507 25.1125 130.252 24.8594 128.988 24.8801C127.744 24.8717 126.509 25.0927 125.345 25.5321C124.233 25.9572 123.219 26.604 122.365 27.4331C121.511 28.2623 120.834 29.2565 120.376 30.3553C119.923 31.512 119.694 32.7444 119.701 33.9867C119.694 35.2242 119.919 36.4521 120.365 37.6068C120.786 38.7112 121.428 39.7175 122.253 40.5637C123.083 41.4015 124.084 42.0497 125.188 42.4637C126.407 42.8983 127.694 43.1115 128.988 43.0933C131.154 43.2238 133.284 42.4923 134.913 41.0583C135.64 40.3039 136.204 39.407 136.568 38.424C136.931 37.441 137.088 36.3934 137.026 35.347C137.116 35.0997 137.116 34.7287 137.038 34.1666Z" fill="white"/>
</g>
<defs>
<clipPath id="clip0_59_72412">
<rect width="137.06" height="51.3005" fill="white"/>
</clipPath>
</defs>
</svg>
