<svg width="28" height="28" viewBox="0 0 28 28" fill="none" xmlns="http://www.w3.org/2000/svg">
<path fill-rule="evenodd" clip-rule="evenodd" d="M2.63 1.21183C2.79185 0.84854 3.09135 0.564401 3.46265 0.421883C3.83395 0.279365 4.24664 0.290135 4.61 0.451826L21.792 8.10783L22.514 6.51783C22.637 6.24734 22.8376 6.01948 23.0903 5.86317C23.3431 5.70685 23.6365 5.62912 23.9335 5.63983C24.2304 5.65055 24.5175 5.74922 24.7583 5.92334C24.9991 6.09746 25.1828 6.33917 25.286 6.61783L26.886 10.9378C27.0242 11.3095 27.0096 11.7207 26.8454 12.0816C26.6813 12.4425 26.3809 12.7237 26.01 12.8638L21.71 14.4838C21.4319 14.5892 21.1288 14.6096 20.8391 14.5424C20.5495 14.4751 20.2863 14.3233 20.0831 14.1062C19.8799 13.889 19.7458 13.6164 19.6979 13.3229C19.65 13.0294 19.6904 12.7283 19.814 12.4578L20.55 10.8378L3.39 3.19383C3.02671 3.03197 2.74258 2.73247 2.60006 2.36118C2.45754 1.98988 2.46831 1.57518 2.63 1.21183ZM2.5 10.9998C1.96957 10.9998 1.46086 11.2105 1.08579 11.5856C0.710714 11.9607 0.5 12.4694 0.5 12.9998V26.9998C0.5 27.265 0.605357 27.5194 0.792893 27.7069C0.98043 27.8945 1.23478 27.9998 1.5 27.9998H6.5C6.76522 27.9998 7.01957 27.8945 7.20711 27.7069C7.39464 27.5194 7.5 27.265 7.5 26.9998V12.9998C7.5 12.4694 7.28929 11.9607 6.91421 11.5856C6.53914 11.2105 6.03043 10.9998 5.5 10.9998H2.5ZM11.086 14.5858C11.461 14.2107 11.9696 13.9999 12.5 13.9998H15.5C16.0304 13.9998 16.5391 14.2105 16.9142 14.5856C17.2893 14.9607 17.5 15.4694 17.5 15.9998V26.9998C17.5 27.265 17.3946 27.5194 17.2071 27.7069C17.0196 27.8945 16.7652 27.9998 16.5 27.9998H11.5C11.2348 27.9998 10.9804 27.8945 10.7929 27.7069C10.6054 27.5194 10.5 27.265 10.5 26.9998V15.9998C10.5001 15.4694 10.7109 14.9608 11.086 14.5858ZM22.5 16.9998C21.9696 16.9998 21.4609 17.2105 21.0858 17.5856C20.7107 17.9607 20.5 18.4694 20.5 18.9998V26.9998C20.5 27.265 20.6054 27.5194 20.7929 27.7069C20.9804 27.8945 21.2348 27.9998 21.5 27.9998H26.5C26.7652 27.9998 27.0196 27.8945 27.2071 27.7069C27.3946 27.5194 27.5 27.265 27.5 26.9998V18.9998C27.5 18.4694 27.2893 17.9607 26.9142 17.5856C26.5391 17.2105 26.0304 16.9998 25.5 16.9998H22.5Z" fill="#1C64F2"/>
</svg>
