<svg width="21" height="14" viewBox="0 0 21 14" fill="none" xmlns="http://www.w3.org/2000/svg">
<path d="M17.667 1H3.66699C2.56242 1 1.66699 1.89543 1.66699 3V11C1.66699 12.1046 2.56242 13 3.66699 13H17.667C18.7716 13 19.667 12.1046 19.667 11V3C19.667 1.89543 18.7716 1 17.667 1Z" stroke="#363636" stroke-width="2"/>
<path d="M4.66699 4H6.66699M14.667 10H16.667" stroke="#363636" stroke-width="2" stroke-linecap="round"/>
<path d="M10.667 9C11.7716 9 12.667 8.10457 12.667 7C12.667 5.89543 11.7716 5 10.667 5C9.56242 5 8.66699 5.89543 8.66699 7C8.66699 8.10457 9.56242 9 10.667 9Z" stroke="#363636" stroke-width="2"/>
</svg>
