<svg width="33" height="28" viewBox="0 0 33 28" fill="none" xmlns="http://www.w3.org/2000/svg">
<path fill-rule="evenodd" clip-rule="evenodd" d="M2.89473 18.9521L2.88827 18.9581L2.88202 18.9641C2.53336 19.3016 1.7485 19.4005 1.13252 19.1051C0.639429 18.8686 0.488529 18.3422 0.90479 17.9265C1.52634 17.3852 1.97633 16.7522 2.27069 16.1333C2.57714 15.489 2.71713 14.7568 2.70729 14.0386C2.69746 13.3204 2.53742 12.5891 2.21335 11.9467C1.90206 11.3298 1.43476 10.6996 0.798441 10.1622C0.370827 9.74909 0.507295 9.22181 0.993868 8.9823C1.6017 8.68311 2.38921 8.77704 2.74707 9.11233L2.75349 9.11834L2.76011 9.12425C3.55234 9.83147 4.20332 10.6171 4.59412 11.3878C5.00603 12.2943 5.27018 13.1712 5.28195 14.0306C5.29433 14.9349 5.1723 15.7908 4.68935 16.6331C4.16337 17.5505 3.65294 18.2535 2.89473 18.9521ZM8.60258 20.6335L8.6179 20.6187L8.63194 20.6033C10.3675 18.7008 11.3614 16.4045 11.3287 14.0117C11.2959 11.6195 10.2396 9.33018 8.45295 7.43891C8.06574 7.02369 8.2357 6.53307 8.8824 6.21474C9.31673 6.00095 10.1349 6.07714 10.6227 6.51964C12.6401 8.68397 13.8663 11.2997 13.9033 14.0037C13.9416 16.8 12.7875 19.3296 10.8278 21.5077C10.374 21.9347 9.67615 22.054 9.07235 21.8116C8.41738 21.4858 8.29476 20.9315 8.60258 20.6335ZM18.728 3.68028L18.7454 3.7034L18.7654 3.7255C21.4995 6.73907 23.0294 10.2143 23.0809 13.9751C23.1324 17.7342 21.6991 21.2171 19.0502 24.2465C18.644 24.6935 17.9545 24.8191 17.2534 24.5973C16.6149 24.3147 16.4411 23.8467 16.771 23.3744C19.0228 20.6361 20.4141 17.4086 20.3672 13.9835C20.3205 10.5738 18.9907 7.35008 16.5091 4.60915C16.1728 4.14119 16.3353 3.67537 16.9629 3.39016C17.7207 3.14386 18.4614 3.32504 18.728 3.68028ZM26.7543 0.817705L26.7661 0.833501L26.7792 0.848828C30.0937 4.7206 32.0536 9.14624 32.1194 13.9469C32.1851 18.7427 30.3504 23.176 27.1484 27.0652C26.7414 27.507 26.0551 27.6304 25.3574 27.4096C24.7209 27.1279 24.5462 26.662 24.8718 26.1912C27.9574 22.5864 29.6058 18.4091 29.5447 13.955C29.4836 9.4893 27.5736 5.32639 24.5408 1.75411C24.1604 1.23266 24.4233 0.722281 24.949 0.541015C25.7207 0.27495 26.4829 0.456211 26.7543 0.817705Z" fill="white"/>
</svg>
