<svg width="138" height="52" viewBox="0 0 138 52" fill="none" xmlns="http://www.w3.org/2000/svg">
<g clip-path="url(#clip0_124_51491)">
<path d="M2.40241 23.6338C2.40241 23.6338 2.1101 23.7575 1.99767 23.3977C2.16631 23.1166 1.23317 20.5983 10.1599 18.9006C19.7387 17.529 24.4831 19.5077 24.337 19.3953C20.2095 17.9165 15.7925 17.4274 11.4416 17.9675C3.93142 18.9343 2.35744 20.4184 1.32311 22.4645C1.32311 22.4645 1.00831 19.5752 0.99707 19.0917C1.06453 18.8556 2.85212 14.9769 12.8019 13.7627C9.11571 13.6988 5.4842 14.6602 2.31247 16.5396C2.31247 16.5396 2.07637 15.629 3.61662 14.5047C6.90394 12.5185 10.6593 11.44 14.4996 11.3792C17.3874 11.2671 20.2714 11.6824 23.0103 12.6047C25.5287 13.4929 27.0352 14.7408 26.9228 15.7976C26.9086 16.1179 26.8402 16.4334 26.7204 16.7308C26.7204 16.7308 28.2382 17.1467 28.0021 19.2829C27.766 21.419 27.9234 23.5551 26.8778 23.4764C26.7317 23.6001 25.5062 21.3515 14.5108 21.2278C3.5829 21.5988 2.54857 23.7687 2.40241 23.6338Z" fill="#8837E9"/>
<path d="M5.62849 35.8656C5.57887 35.8104 5.52633 35.7578 5.47109 35.7082C5.39407 35.6444 5.31126 35.588 5.22375 35.5396C5.15914 35.5014 5.08518 35.4819 5.01014 35.4834C4.9795 35.4824 4.94945 35.4919 4.92493 35.5103C4.9004 35.5287 4.88288 35.5549 4.87523 35.5846C4.79898 35.7971 4.73885 36.0151 4.69534 36.2366C4.69534 36.3378 4.69534 36.4278 4.63913 36.5289C4.49297 35.5396 4.34682 34.5277 4.21191 33.5271C3.72847 30.0644 3.31249 26.5904 2.96397 23.285C2.96397 22.9477 2.89651 22.6217 2.87402 22.2957L3.93084 22.0596C3.93084 22.3069 3.93084 22.5542 4.00954 22.7903C4.08824 23.0264 4.00954 23.2176 4.06575 23.4312L4.16694 24.3756C4.49297 27.3549 4.87523 30.4466 5.29121 33.5047L5.62849 35.8656Z" fill="#8837E9"/>
<path d="M6.15657 39.3623L6.07787 39.5984C6.04679 39.6947 6.00131 39.7856 5.94296 39.8683C5.90667 39.9276 5.86112 39.9807 5.80805 40.0257C5.78208 40.0394 5.75312 40.0466 5.72372 40.0466C5.69432 40.0466 5.66537 40.0394 5.6394 40.0257C5.58632 39.9934 5.54013 39.9509 5.50347 39.9008C5.46681 39.8506 5.44042 39.7937 5.42579 39.7333C5.37919 39.5494 5.3528 39.3609 5.34709 39.1712C5.33092 38.9279 5.33092 38.6837 5.34709 38.4404C5.34709 38.1706 5.40331 37.912 5.44828 37.6534C5.49325 37.3949 5.5607 37.1588 5.62816 36.9227C5.69562 36.6866 5.68438 36.7203 5.7181 36.6416C5.8755 37.5635 6.02166 38.4629 6.15657 39.3623Z" fill="#8837E9"/>
<path d="M22.7404 40.5881V40.6555C22.735 40.6107 22.735 40.5654 22.7404 40.5206L22.8528 40.4307L22.7404 40.5881Z" fill="#8837E9"/>
<path d="M23.7629 40.61C23.5493 41.9367 23.3357 43.2296 23.1221 44.5C22.6836 46.9847 22.2339 49.3344 21.773 51.4818C16.8397 52.0889 11.8343 51.6757 7.06749 50.2675C6.60654 48.1764 6.15683 45.8941 5.7296 43.5219C5.54972 42.4651 5.35859 41.3746 5.17871 40.2615C5.29011 40.3628 5.43312 40.4223 5.58345 40.4302C5.65674 40.4401 5.73134 40.4332 5.8015 40.4098C5.87167 40.3864 5.93554 40.3472 5.98819 40.2953C6.07072 40.2092 6.13903 40.1105 6.19056 40.0029C6.40417 41.3408 6.61778 42.645 6.84263 43.9042L7.045 45.0284C7.32607 46.6024 7.61838 48.1089 7.91069 49.5255C12.0888 50.8927 16.5327 51.2435 20.8735 50.5486C21.1546 49.177 21.4357 47.7267 21.7055 46.2089C21.7954 45.748 21.8741 45.2758 21.9528 44.8036C22.1252 43.8142 22.2939 42.8024 22.4588 41.768L22.6724 41.5319L23.1221 40.9586C23.3479 40.8665 23.5629 40.7496 23.7629 40.61Z" fill="#8837E9"/>
<path d="M23.9316 39.7441L23.8641 40.1826C23.7616 40.2628 23.6525 40.3342 23.5381 40.3962L23.7517 40.0589L23.9316 39.7441Z" fill="#8837E9"/>
<path d="M24.1225 38.4629V38.8002C24.055 38.7464 23.9725 38.715 23.8864 38.7102C23.8077 38.7102 23.7402 38.7664 23.6952 38.8789L23.6165 39.0363C23.6165 39.115 23.5266 39.2162 23.4591 39.3286L23.2455 39.6771C23.1556 39.7895 23.0769 39.902 22.987 40.0031L22.8633 40.1381L23.0319 39.0138C23.119 38.9231 23.2173 38.8438 23.3242 38.7777C23.4986 38.6463 23.6973 38.5508 23.9089 38.4966C23.9783 38.4763 24.0501 38.4649 24.1225 38.4629Z" fill="#8837E9"/>
<path d="M26.1244 22.048L26.0232 23.0037C25.6859 26.6013 25.2475 30.3452 24.7528 34.0553C24.5729 35.3932 24.3818 36.7198 24.1907 38.0239C24.0747 38.0129 23.958 38.0129 23.8421 38.0239C23.5828 38.0332 23.3274 38.0904 23.0889 38.1926C23.3025 36.8097 23.4936 35.3931 23.6847 33.9766C24.1232 30.6824 24.5279 27.3434 24.809 24.0942C24.8652 23.5883 24.9102 23.0936 24.9552 22.5989C24.9552 22.3516 24.9552 22.1043 25.0339 21.8682L26.1244 22.048Z" fill="#8837E9"/>
<path d="M3.45898 23.5666C3.86372 23.4654 4.2797 23.3867 4.71817 23.3192C5.15663 23.2518 5.5951 23.1731 6.05605 23.1169C7.0071 23.0016 7.96654 22.9715 8.92294 23.0269C7.97679 23.1596 7.04391 23.374 6.13475 23.6677C5.69628 23.8027 5.28031 23.9488 4.87557 24.1062C4.47083 24.2636 4.06609 24.4098 3.7513 24.5672C3.61638 24.2299 3.53768 23.9038 3.45898 23.5666Z" fill="#8837E9"/>
<path d="M25.3708 24.2637C24.6737 24.0163 23.898 23.769 23.1222 23.5442C22.3465 23.3193 21.4471 23.0944 20.5589 22.9146C19.6707 22.7347 18.7488 22.5548 17.8044 22.4311C16.8461 22.3066 15.8813 22.239 14.915 22.2288C15.8799 22.0924 16.8525 22.0173 17.8269 22.0039C18.7825 22.0039 19.7269 22.0039 20.6488 22.0714C21.5707 22.1388 22.4477 22.2175 23.2909 22.3299C24.1341 22.4424 24.9323 22.566 25.6856 22.7234C25.5619 23.2294 25.472 23.7465 25.3708 24.2637Z" fill="#8837E9"/>
<path d="M22.358 45.9955L22.0995 46.0855L21.8634 46.1529L21.4137 46.2653C21.1064 46.3328 20.8028 46.389 20.503 46.434C19.9032 46.5236 19.2989 46.5799 18.6929 46.6026C18.0858 46.6026 17.4899 46.6026 16.8828 46.6026L15.9722 46.5352L15.0615 46.434L15.9722 46.3778L16.8716 46.2766C17.4787 46.1979 18.0746 46.0855 18.6592 45.9505C19.2532 45.8162 19.8388 45.6472 20.4131 45.4446C20.7054 45.3434 20.9864 45.2422 21.2675 45.1186L21.6722 44.9387L21.8746 44.8375C21.9337 44.8088 21.9901 44.7749 22.0433 44.7363C22.1444 45.2085 22.2569 45.5795 22.358 45.9955Z" fill="#8837E9"/>
<path d="M6.61833 43.7021C6.93313 43.9045 7.27041 44.0956 7.60769 44.2755C7.94497 44.4554 8.27102 44.6465 8.6083 44.8152C9.27624 45.156 9.96753 45.4491 10.677 45.6921C9.96582 45.6376 9.25948 45.5324 8.56332 45.3773L7.50651 45.1187L6.46094 44.8039C6.51715 44.4329 6.51715 44.0844 6.61833 43.7021Z" fill="#8837E9"/>
<path d="M21.0083 7.90482C21.0083 8.73678 21.0758 9.59123 21.0983 10.4682C21.1012 10.5054 21.0951 10.5429 21.0807 10.5774C21.0663 10.6119 21.0439 10.6424 21.0154 10.6666C20.9868 10.6907 20.953 10.7078 20.9166 10.7163C20.8802 10.7248 20.8422 10.7245 20.806 10.7155C19.9065 10.6256 18.9959 10.5581 18.0627 10.5244C17.4556 11.064 16.8485 11.6486 16.2302 12.1883L15.8592 11.851C16.4775 11.2664 17.0846 10.7267 17.6917 10.1758C17.6917 9.34388 17.6917 8.52317 17.6355 7.72493L16.6911 6.9042C15.3645 6.9042 14.0154 6.97166 12.6887 7.08409C12.6537 7.09234 12.6173 7.09285 12.5821 7.0856C12.5469 7.07835 12.5137 7.0635 12.4848 7.0421C12.4559 7.02069 12.432 6.99324 12.4148 6.96166C12.3976 6.93007 12.3875 6.89513 12.3852 6.85924C12.3852 5.73497 12.3852 4.66691 12.4414 3.66631L11.913 3.2953L10.2603 3.52015C10.0917 3.52015 9.96798 3.52015 9.97922 3.34026L10.0467 2.05859C10.0467 1.94617 10.1816 1.83374 10.3502 1.81125C10.9011 1.73255 11.4745 1.65387 12.0142 1.59766C12.1716 1.59766 12.3065 1.59765 12.2952 1.76629V2.99174L12.8349 3.35152C14.1053 3.22785 15.3757 3.16039 16.6462 3.1379C16.6861 3.13154 16.7269 3.13321 16.7661 3.14283C16.8054 3.15244 16.8423 3.16979 16.8748 3.19388C16.9073 3.21797 16.9346 3.2483 16.9552 3.28309C16.9758 3.31788 16.9892 3.35643 16.9947 3.39648C16.9947 4.40833 17.0509 5.47639 17.0846 6.60066L18.0178 7.42138C18.9397 7.42138 19.8503 7.51132 20.7385 7.60126C20.8096 7.61731 20.8738 7.65522 20.9222 7.70967C20.9706 7.76411 21.0007 7.83237 21.0083 7.90482Z" fill="#8837E9"/>
<path d="M11.6768 7.66882C11.0135 7.74752 10.3502 7.83747 9.69809 7.93865C9.62067 7.95221 9.54955 7.98998 9.495 8.04656C9.44044 8.10313 9.40526 8.17559 9.39453 8.25345C9.39453 8.82683 9.39453 9.37771 9.39453 9.98482C9.39524 10.0217 9.40418 10.0579 9.42069 10.0909C9.43721 10.1238 9.46088 10.1527 9.48997 10.1753C9.51907 10.1979 9.55286 10.2138 9.58887 10.2217C9.62487 10.2296 9.66219 10.2293 9.69809 10.2209C10.3502 10.1197 11.0135 10.0298 11.688 9.96233C11.7673 9.95525 11.8417 9.92129 11.899 9.86607C11.9562 9.81085 11.9929 9.73771 12.0028 9.65879C12.0028 9.06292 12.0028 8.53452 12.0028 7.90493C11.9804 7.75877 11.8454 7.65758 11.6768 7.66882Z" fill="#8837E9"/>
<path d="M13.4422 1.3619H14.1393C14.2966 1.3619 14.4316 1.24948 14.4316 1.13705V0.64237C14.4316 0.541185 14.2966 0.462485 14.1393 0.473727H13.4534C13.296 0.473727 13.1611 0.58616 13.1611 0.698587C13.1611 0.811014 13.1611 1.02462 13.1611 1.18202C13.1611 1.33941 13.2623 1.41812 13.4422 1.3619Z" fill="#8837E9"/>
<path d="M20.6148 4.65569H20.0077C19.9731 4.64898 19.9375 4.6501 19.9035 4.65892C19.8694 4.66774 19.8377 4.68406 19.8108 4.70669C19.7839 4.72932 19.7623 4.75768 19.7478 4.78971C19.7332 4.82173 19.726 4.85662 19.7266 4.8918C19.7266 5.06044 19.7266 5.24033 19.7266 5.40897C19.7369 5.4837 19.7727 5.55255 19.8281 5.6038C19.8834 5.65505 19.9549 5.68554 20.0302 5.69004L20.6373 5.74624C20.8059 5.74624 20.9296 5.6563 20.9183 5.51015C20.9071 5.36399 20.9183 5.16162 20.9183 4.98174C20.916 4.89978 20.8839 4.82148 20.828 4.76147C20.7722 4.70146 20.6964 4.66386 20.6148 4.65569Z" fill="#8837E9"/>
<path d="M22.5711 6.16222C22.2189 6.10225 21.8703 6.05727 21.5256 6.02729C21.4923 6.01807 21.4573 6.01705 21.4235 6.02432C21.3898 6.03159 21.3583 6.04694 21.3317 6.06905C21.3052 6.09115 21.2844 6.11936 21.2712 6.15125C21.258 6.18314 21.2527 6.21777 21.2557 6.25216C21.2557 6.56695 21.2557 6.89298 21.2557 7.20778C21.2585 7.2874 21.2914 7.363 21.3477 7.41934C21.4041 7.47567 21.4797 7.50854 21.5593 7.51134L22.5936 7.6575C22.6269 7.66672 22.6619 7.66774 22.6957 7.66047C22.7294 7.6532 22.7609 7.63785 22.7874 7.61574C22.814 7.59364 22.8347 7.56543 22.848 7.53354C22.8612 7.50165 22.8665 7.46702 22.8634 7.43263C22.8634 7.10659 22.8634 6.78055 22.8634 6.46576C22.8564 6.38949 22.8237 6.31788 22.7705 6.26271C22.7174 6.20754 22.6471 6.1721 22.5711 6.16222Z" fill="#8837E9"/>
<path d="M9.00118 7.44418C9.00118 7.03945 9.00118 6.6347 9.05739 6.24121C9.05739 6.10629 8.93372 6.01635 8.76508 6.05008L7.38223 6.33115C7.30739 6.35027 7.23936 6.38984 7.18575 6.44544C7.13213 6.50104 7.09506 6.57046 7.07867 6.64594C7.07867 7.03944 7.07867 7.44419 7.02246 7.84892C7.02246 7.99508 7.14613 8.07378 7.30353 8.04005L8.69763 7.75898C8.77578 7.74714 8.84786 7.70989 8.90272 7.653C8.95759 7.5961 8.99219 7.52272 9.00118 7.44418Z" fill="#8837E9"/>
<path d="M26.2698 34.8427C25.8651 37.7096 25.4041 40.599 24.8982 43.3759C24.8693 43.5309 24.803 43.6764 24.705 43.7998C24.6071 43.9233 24.4804 44.0209 24.3361 44.0842C24.055 44.1854 23.6615 44.3316 23.1556 44.4777L22.0313 44.77C19.5782 45.3847 17.046 45.6236 14.5212 45.4783C11.9687 45.2915 9.45345 44.7582 7.04477 43.8931L6.74122 43.7807C6.43766 43.6795 6.15659 43.567 5.89801 43.4659C5.34712 43.2522 4.90865 43.0611 4.6051 42.915C4.46228 42.8436 4.3375 42.7407 4.24014 42.6141C4.14278 42.4875 4.07536 42.3406 4.04296 42.1842C3.54828 39.5534 3.10982 36.8327 2.70508 34.1457C2.70508 33.8309 2.80626 33.5835 3.06485 33.5723H4.34652H5.47079C7.42702 33.5723 10.4738 33.5723 14.6336 33.6397C18.7934 33.7072 21.9189 33.8871 23.8526 34.0332L24.9769 34.1232C25.5166 34.1232 25.8988 34.2244 26.1012 34.2693C26.3035 34.3143 26.326 34.5054 26.2698 34.8427Z" fill="#8837E9"/>
<path d="M38.5246 32.8413L38.176 32.6726C36.3097 31.8182 35.3653 30.8963 35.3653 29.9294C35.351 29.6576 35.3981 29.386 35.5032 29.1349C35.6083 28.8838 35.7687 28.6596 35.9725 28.4791C36.4455 28.0903 37.0475 27.8937 37.6589 27.9282C38.1243 27.9234 38.5825 28.0438 38.9855 28.2767C39.4445 28.5565 39.83 28.942 40.1098 29.401L40.1885 29.5134L42.4932 28.3442V28.2205C42.17 27.2999 41.5226 26.5285 40.6719 26.0507C39.6755 25.526 38.5595 25.2703 37.434 25.3087C36.041 25.2495 34.6779 25.7239 33.6227 26.6353C33.1393 27.0766 32.7581 27.6181 32.5057 28.2221C32.2532 28.826 32.1357 29.4777 32.1612 30.1318C32.1346 31.1545 32.4779 32.1525 33.128 32.9424C34.2313 34.022 35.5281 34.884 36.9506 35.4833C37.0742 35.4833 37.2429 35.6182 37.479 35.7307C39.0867 36.4952 39.8962 37.3496 39.8962 38.294C39.9122 38.6148 39.8592 38.9353 39.7409 39.234C39.6226 39.5327 39.4417 39.8025 39.2104 40.0254C38.6992 40.4813 38.028 40.7159 37.3441 40.6774C36.6114 40.7087 35.8875 40.5081 35.2754 40.1041C34.7194 39.6962 34.322 39.1082 34.1511 38.4401V38.2715L31.6777 39.3958V39.5082C31.9179 40.6943 32.5913 41.7485 33.5665 42.465C34.647 43.1911 35.931 43.5534 37.2316 43.4994C38.7784 43.5753 40.2942 43.0472 41.4589 42.0266C41.9872 41.5165 42.4008 40.8998 42.6722 40.2174C42.9436 39.535 43.0665 38.8027 43.0329 38.0691C43.0635 37.0234 42.7162 36.0016 42.0548 35.191C41.0513 34.1743 39.8497 33.3746 38.5246 32.8413Z" fill="#8837E9"/>
<path d="M49.6103 25.6572H46.541V43.0272H49.6103V25.6572Z" fill="#8837E9"/>
<path d="M53.7361 25.6572V28.3105H60.8752L52.1621 43.0385H65.6421V40.2615H57.019L65.6421 25.6572H53.7361Z" fill="#8837E9"/>
<path d="M68.5205 43.0385H78.3354V40.2615H71.5785V35.6408H77.481V32.9088H71.5785V28.3105H78.3354V25.6572H68.5205V43.0385Z" fill="#8837E9"/>
<path d="M91.9618 35.7983C91.9618 35.8995 91.8381 36.0569 91.7481 36.2593C91.4783 36.8439 91.2647 37.3498 91.1073 37.777C90.9387 37.3498 90.7925 36.9788 90.6576 36.6528C90.5227 36.3267 90.3878 35.9669 90.3091 35.7871L85.0812 24.623L80.9102 43.0161H83.7658L85.6209 34.4942C85.721 34.0831 85.7961 33.6664 85.8457 33.2462C85.8457 33.1225 85.8457 32.9989 85.8457 32.8752C85.8457 32.9876 85.9357 33.1001 85.9694 33.2125C86.1155 33.5723 86.2729 33.9545 86.4641 34.3368L91.0623 43.8931L95.6606 34.5279C95.8504 34.1337 96.0156 33.7282 96.1553 33.3137C96.1553 33.1788 96.2452 33.0438 96.279 32.9089C96.279 33.0438 96.279 33.2012 96.279 33.3586C96.3464 33.9658 96.4026 34.3368 96.4364 34.4829L98.3476 43.0274H101.226L96.9535 24.6343L91.9618 35.7983Z" fill="#8837E9"/>
<path d="M114.694 36.2146C114.785 37.4289 114.416 38.633 113.66 39.5874C112.794 40.306 111.704 40.6993 110.579 40.6993C109.454 40.6993 108.364 40.306 107.499 39.5874C106.742 38.633 106.373 37.4289 106.464 36.2146V25.6914H103.44V36.4732C103.368 37.4297 103.488 38.3909 103.794 39.3002C104.099 40.2096 104.582 41.0488 105.216 41.7685C106.775 42.912 108.658 43.5286 110.59 43.5286C112.523 43.5286 114.406 42.912 115.965 41.7685C116.603 41.0535 117.09 40.2169 117.398 39.3089C117.705 38.4009 117.825 37.4402 117.752 36.4844V25.7026H114.694V36.2146Z" fill="#8837E9"/>
<path d="M137.978 34.6177C137.978 34.4154 137.978 34.2467 137.978 34.1343V33.9656H130.918V36.5964H135.021V36.7089C135.043 37.262 134.937 37.8126 134.711 38.3178C134.485 38.823 134.144 39.2689 133.717 39.6207C132.653 40.385 131.36 40.7619 130.052 40.6888C129.221 40.7263 128.392 40.5897 127.618 40.2876C126.843 39.9856 126.141 39.5248 125.555 38.9349C124.978 38.3206 124.529 37.5977 124.233 36.8084C123.938 36.019 123.803 35.1788 123.835 34.3367C123.808 33.5104 123.946 32.687 124.242 31.9148C124.537 31.1427 124.984 30.4371 125.555 29.8396C126.136 29.2639 126.829 28.8134 127.591 28.5156C128.352 28.2178 129.167 28.0792 129.984 28.1082C130.8 28.0951 131.609 28.2561 132.357 28.5804C133.089 28.9232 133.738 29.422 134.257 30.0419L134.347 30.1431L136.595 28.4342L136.494 28.3218C135.707 27.3694 134.721 26.6018 133.605 26.0733C132.447 25.5637 131.193 25.3106 129.928 25.3313C128.684 25.3228 127.449 25.5439 126.286 25.9833C125.174 26.4084 124.16 27.0552 123.305 27.8843C122.451 28.7134 121.774 29.7076 121.316 30.8064C120.863 31.9632 120.634 33.1955 120.642 34.4378C120.635 35.6754 120.86 36.9033 121.305 38.058C121.726 39.1623 122.369 40.1687 123.194 41.0148C124.023 41.8527 125.024 42.5009 126.128 42.9149C127.347 43.3495 128.634 43.5627 129.928 43.5445C132.094 43.675 134.224 42.9435 135.853 41.5095C136.581 40.7551 137.144 39.8581 137.508 38.8752C137.872 37.8922 138.028 36.8446 137.967 35.7982C138.057 35.5509 138.057 35.1799 137.978 34.6177Z" fill="#8837E9"/>
</g>
<defs>
<clipPath id="clip0_124_51491">
<rect width="137.06" height="51.3005" fill="white" transform="translate(0.94043 0.451172)"/>
</clipPath>
</defs>
</svg>
