<?xml version="1.0" encoding="UTF-8"?>
<svg xmlns="http://www.w3.org/2000/svg" xmlns:xlink="http://www.w3.org/1999/xlink" width="0" height="0">
<symbol id="action" width="19" height="16" viewBox="0 0 19 16" fill="none">
<path d="M0.833008 16V14H18.833V16H0.833008ZM0.833008 2V0H18.833V2H0.833008ZM2.83301 12C2.28301 12 1.81234 11.8043 1.42101 11.413C1.02967 11.0217 0.833674 10.5507 0.833008 10V6C0.833008 5.45 1.02901 4.97933 1.42101 4.588C1.81301 4.19667 2.28367 4.00067 2.83301 4H16.833C17.383 4 17.854 4.196 18.246 4.588C18.638 4.98 18.8337 5.45067 18.833 6V10C18.833 10.55 18.6373 11.021 18.246 11.413C17.8547 11.805 17.3837 12.0007 16.833 12H2.83301ZM2.83301 10H16.833V6H2.83301V10Z"/>
</symbol>

<symbol id="back" width="15" height="26" viewBox="0 0 15 26" fill="none">
<path fill-rule="evenodd" clip-rule="evenodd" d="M4.01423 13L14.6207 23.6065L12.4997 25.7275L0.832734 14.0605C0.551528 13.7792 0.393555 13.3977 0.393555 13C0.393555 12.6022 0.551528 12.2208 0.832734 11.9395L12.4997 0.272461L14.6207 2.39346L4.01423 13Z"/>
</symbol>

<symbol id="bell" width="28" height="29" viewBox="0 0 28 29" fill="none">
<path fill-rule="evenodd" clip-rule="evenodd" d="M3.50002 11C3.50002 8.21523 4.60626 5.54451 6.5754 3.57538C8.54453 1.60625 11.2152 0.5 14 0.5C16.7848 0.5 19.4555 1.60625 21.4246 3.57538C23.3938 5.54451 24.5 8.21523 24.5 11V16.646L27.233 22.112C27.3588 22.3636 27.4182 22.6431 27.4056 22.9241C27.393 23.2051 27.3087 23.4782 27.1608 23.7175C27.0129 23.9568 26.8063 24.1543 26.5606 24.2912C26.3149 24.4282 26.0383 24.5 25.757 24.5H19.811C19.4774 25.7874 18.7257 26.9275 17.6739 27.7414C16.6222 28.5553 15.3299 28.9969 14 28.9969C12.6701 28.9969 11.3779 28.5553 10.3261 27.7414C9.27437 26.9275 8.52267 25.7874 8.18902 24.5H2.24302C1.96173 24.5 1.68511 24.4282 1.43942 24.2912C1.19373 24.1543 0.987124 23.9568 0.839235 23.7175C0.691346 23.4782 0.60708 23.2051 0.59444 22.9241C0.581801 22.6431 0.641207 22.3636 0.767018 22.112L3.50002 16.646V11ZM11.402 24.5C11.6653 24.956 12.044 25.3347 12.5001 25.598C12.9561 25.8613 13.4734 25.9999 14 25.9999C14.5266 25.9999 15.0439 25.8613 15.5 25.598C15.956 25.3347 16.3347 24.956 16.598 24.5H11.402ZM14 3.5C12.0109 3.5 10.1032 4.29018 8.69672 5.6967C7.29019 7.10322 6.50002 9.01088 6.50002 11V16.646C6.49999 17.1115 6.39163 17.5706 6.18352 17.987L4.42852 21.5H23.573L21.818 17.987C21.6094 17.5707 21.5005 17.1116 21.5 16.646V11C21.5 9.01088 20.7098 7.10322 19.3033 5.6967C17.8968 4.29018 15.9891 3.5 14 3.5Z"/>
</symbol>

<symbol id="buy" width="28" height="29" viewBox="0 0 28 29" fill="none">
<path d="M16.7021 11.1644C16.5405 10.7099 16.2424 10.3165 15.8485 10.038C15.4547 9.75942 14.9845 9.60939 14.5021 9.60841H12.6961C12.1809 9.60572 11.6829 9.79417 11.2986 10.1373C10.9142 10.4805 10.6708 10.954 10.6153 11.4662C10.5598 11.9785 10.6963 12.4931 10.9982 12.9106C11.3002 13.3281 11.7462 13.6187 12.2501 13.7264L15.0001 14.3264C15.5624 14.4495 16.0594 14.7761 16.3956 15.2433C16.7317 15.7106 16.8834 16.2856 16.8214 16.8579C16.7593 17.4301 16.488 17.9593 16.0596 18.3437C15.6311 18.7281 15.0757 18.9406 14.5001 18.9404H12.9461C11.9301 18.9404 11.0661 18.2924 10.7461 17.3864M13.7241 9.60841V7.27441M13.7241 21.2744V18.9424M3.99609 27.5464V22.5464H8.99609" stroke-width="2" stroke-linecap="round" stroke-linejoin="round"/>
<path d="M26.7759 12.1582C27.3068 14.9887 26.8829 17.9153 25.5707 20.4787C24.2585 23.0422 22.1322 25.0974 19.5256 26.3217C16.919 27.546 13.9797 27.8702 11.169 27.2434C8.35824 26.6165 5.8352 25.0741 3.99586 22.8582M1.22386 16.9422C0.692905 14.1118 1.11681 11.1852 2.42903 8.62176C3.74126 6.05831 5.86752 4.00314 8.47409 2.7788C11.0807 1.55447 14.02 1.23029 16.8307 1.85714C19.6415 2.48399 22.1645 4.02639 24.0039 6.24225" stroke-width="2" stroke-linecap="round" stroke-linejoin="round"/>
<path d="M24.0039 1.5542V6.5542H19.0039" stroke-width="2" stroke-linecap="round" stroke-linejoin="round"/>
</symbol>

<symbol id="calendar" width="18" height="20" viewBox="0 0 18 20" fill="none">
<path d="M5 12C4.71667 12 4.47933 11.904 4.288 11.712C4.09667 11.52 4.00067 11.2827 4 11C3.99933 10.7173 4.09533 10.48 4.288 10.288C4.48067 10.096 4.718 10 5 10C5.282 10 5.51967 10.096 5.713 10.288C5.90633 10.48 6.002 10.7173 6 11C5.998 11.2827 5.902 11.5203 5.712 11.713C5.522 11.9057 5.28467 12.0013 5 12ZM9 12C8.71667 12 8.47933 11.904 8.288 11.712C8.09667 11.52 8.00067 11.2827 8 11C7.99933 10.7173 8.09533 10.48 8.288 10.288C8.48067 10.096 8.718 10 9 10C9.282 10 9.51967 10.096 9.713 10.288C9.90633 10.48 10.002 10.7173 10 11C9.998 11.2827 9.902 11.5203 9.712 11.713C9.522 11.9057 9.28467 12.0013 9 12ZM13 12C12.7167 12 12.4793 11.904 12.288 11.712C12.0967 11.52 12.0007 11.2827 12 11C11.9993 10.7173 12.0953 10.48 12.288 10.288C12.4807 10.096 12.718 10 13 10C13.282 10 13.5197 10.096 13.713 10.288C13.9063 10.48 14.002 10.7173 14 11C13.998 11.2827 13.902 11.5203 13.712 11.713C13.522 11.9057 13.2847 12.0013 13 12ZM2 20C1.45 20 0.979333 19.8043 0.588 19.413C0.196667 19.0217 0.000666667 18.5507 0 18V4C0 3.45 0.196 2.97933 0.588 2.588C0.98 2.19667 1.45067 2.00067 2 2H3V0H5V2H13V0H15V2H16C16.55 2 17.021 2.196 17.413 2.588C17.805 2.98 18.0007 3.45067 18 4V18C18 18.55 17.8043 19.021 17.413 19.413C17.0217 19.805 16.5507 20.0007 16 20H2ZM2 18H16V8H2V18Z"/>
</symbol>

<symbol id="cardcoin" width="34" height="24" viewBox="0 0 34 24" fill="none">
<path d="M21.5002 0C23.8736 0 26.1937 0.703788 28.1671 2.02236C30.1404 3.34094 31.6785 5.21509 32.5868 7.4078C33.495 9.60051 33.7327 12.0133 33.2696 14.3411C32.8066 16.6689 31.6637 18.8071 29.9855 20.4853C28.3073 22.1635 26.1691 23.3064 23.8413 23.7694C21.5135 24.2324 19.1007 23.9948 16.908 23.0866C14.7153 22.1783 12.8412 20.6402 11.5226 18.6668C10.204 16.6935 9.50022 14.3734 9.50022 12C9.50022 8.8174 10.7645 5.76516 13.0149 3.51472C15.2654 1.26428 18.3176 0 21.5002 0ZM3.50022 12C3.50234 13.8594 4.08032 15.6725 5.15471 17.1901C6.2291 18.7076 7.74716 19.8552 9.50022 20.475V23.61C6.93223 22.9388 4.65922 21.4352 3.03695 19.3344C1.41467 17.2336 0.534668 14.6543 0.534668 12C0.534668 9.34575 1.41467 6.76639 3.03695 4.66561C4.65922 2.56483 6.93223 1.06118 9.50022 0.39V3.525C7.74716 4.1448 6.2291 5.29235 5.15471 6.80993C4.08032 8.32751 3.50234 10.1406 3.50022 12Z"/>
</symbol>

<symbol id="closeButton" width="50" height="51" viewBox="0 0 50 51" fill="none">
<path d="M16 38L25 29L34 38L37.5 34.5L28.5 25.5L37.5 16.5L34 13L25 22L16 13L12.5 16.5L21.5 25.5L12.5 34.5L16 38ZM25 50.5C21.5417 50.5 18.2917 49.8433 15.25 48.53C12.2083 47.2167 9.5625 45.4358 7.3125 43.1875C5.0625 40.9392 3.28167 38.2933 1.97 35.25C0.658337 32.2067 0.00166983 28.9567 3.16456e-06 25.5C-0.0016635 22.0433 0.655003 18.7933 1.97 15.75C3.285 12.7067 5.06584 10.0608 7.3125 7.8125C9.55917 5.56417 12.205 3.78333 15.25 2.47C18.295 1.15667 21.545 0.5 25 0.5C28.455 0.5 31.705 1.15667 34.75 2.47C37.795 3.78333 40.4408 5.56417 42.6875 7.8125C44.9342 10.0608 46.7158 12.7067 48.0325 15.75C49.3492 18.7933 50.005 22.0433 50 25.5C49.995 28.9567 49.3383 32.2067 48.03 35.25C46.7217 38.2933 44.9408 40.9392 42.6875 43.1875C40.4342 45.4358 37.7883 47.2175 34.75 48.5325C31.7117 49.8475 28.4617 50.5033 25 50.5ZM25 45.5C30.5833 45.5 35.3125 43.5625 39.1875 39.6875C43.0625 35.8125 45 31.0833 45 25.5C45 19.9167 43.0625 15.1875 39.1875 11.3125C35.3125 7.4375 30.5833 5.5 25 5.5C19.4167 5.5 14.6875 7.4375 10.8125 11.3125C6.9375 15.1875 5 19.9167 5 25.5C5 31.0833 6.9375 35.8125 10.8125 39.6875C14.6875 43.5625 19.4167 45.5 25 45.5Z"/>
</symbol>

<symbol id="conversion" width="30" height="28" viewBox="0 0 30 28" fill="none">
<path d="M3.00781 3.47363V24.4736H27.0078V3.47363H3.00781ZM1.50781 0.473633H28.5078C28.9056 0.473633 29.2872 0.631668 29.5685 0.912973C29.8498 1.19428 30.0078 1.57581 30.0078 1.97363V25.9736C30.0078 26.3715 29.8498 26.753 29.5685 27.0343C29.2872 27.3156 28.9056 27.4736 28.5078 27.4736H1.50781C1.10999 27.4736 0.728457 27.3156 0.447152 27.0343C0.165848 26.753 0.0078125 26.3715 0.0078125 25.9736V1.97363C0.0078125 1.57581 0.165848 1.19428 0.447152 0.912973C0.728457 0.631668 1.10999 0.473633 1.50781 0.473633ZM19.5078 6.47363L24.7578 10.9736L19.5078 15.4736V12.4736H13.5078V9.47363H19.5078V6.47363ZM10.5078 21.4736L5.25781 16.9736L10.5078 12.4736V15.4736H16.5078V18.4736H10.5078V21.4736Z"/>
</symbol>

<symbol id="customAdd" width="31" height="30" viewBox="0 0 31 30" fill="none">
<path fill-rule="evenodd" clip-rule="evenodd" d="M0.5 15C0.5 6.7155 7.2155 0 15.5 0C23.7845 0 30.5 6.7155 30.5 15C30.5 23.2845 23.7845 30 15.5 30C7.2155 30 0.5 23.2845 0.5 15ZM15.5 3C12.3174 3 9.26515 4.26428 7.01472 6.51472C4.76428 8.76515 3.5 11.8174 3.5 15C3.5 18.1826 4.76428 21.2348 7.01472 23.4853C9.26515 25.7357 12.3174 27 15.5 27C18.6826 27 21.7348 25.7357 23.9853 23.4853C26.2357 21.2348 27.5 18.1826 27.5 15C27.5 11.8174 26.2357 8.76515 23.9853 6.51472C21.7348 4.26428 18.6826 3 15.5 3Z"/>
<path fill-rule="evenodd" clip-rule="evenodd" d="M17 7.5C17 7.10218 16.842 6.72064 16.5607 6.43934C16.2794 6.15804 15.8978 6 15.5 6C15.1022 6 14.7206 6.15804 14.4393 6.43934C14.158 6.72064 14 7.10218 14 7.5V13.5H8C7.60218 13.5 7.22064 13.658 6.93934 13.9393C6.65804 14.2206 6.5 14.6022 6.5 15C6.5 15.3978 6.65804 15.7794 6.93934 16.0607C7.22064 16.342 7.60218 16.5 8 16.5H14V22.5C14 22.8978 14.158 23.2794 14.4393 23.5607C14.7206 23.842 15.1022 24 15.5 24C15.8978 24 16.2794 23.842 16.5607 23.5607C16.842 23.2794 17 22.8978 17 22.5V16.5H23C23.3978 16.5 23.7794 16.342 24.0607 16.0607C24.342 15.7794 24.5 15.3978 24.5 15C24.5 14.6022 24.342 14.2206 24.0607 13.9393C23.7794 13.658 23.3978 13.5 23 13.5H17V7.5Z"/>
</symbol>

<symbol id="deposit" width="22" height="22" viewBox="0 0 22 22" fill="none">
<path d="M5.6665 10.9993L10.9998 16.3327M10.9998 16.3327L16.3332 10.9993M10.9998 16.3327V1.66602M1.6665 20.3327H20.3332" stroke-width="1.9" stroke-linecap="round" stroke-linejoin="round"/>
</symbol>

<symbol id="eye" width="21" height="12" viewBox="0 0 21 12" fill="none">
<path d="M10.333 0.214844C4.67351 0.214844 0.208008 6.00034 0.208008 6.00034C0.208008 6.00034 4.67351 11.7866 10.333 11.7866C14.6605 11.7866 20.458 6.00034 20.458 6.00034C20.458 6.00034 14.6605 0.214844 10.333 0.214844ZM10.333 9.60484C8.34551 9.60484 6.72776 7.98784 6.72776 6.00034C6.72776 4.01284 8.34551 2.39509 10.333 2.39509C12.3205 2.39509 13.9383 4.01284 13.9383 6.00034C13.9383 7.98784 12.3205 9.60484 10.333 9.60484ZM10.333 3.89584C10.0533 3.89056 9.77544 3.94109 9.51553 4.04446C9.25562 4.14783 9.01893 4.30197 8.81929 4.49788C8.61964 4.69379 8.46106 4.92753 8.3528 5.18544C8.24454 5.44335 8.18878 5.72026 8.18878 5.99997C8.18878 6.27968 8.24454 6.55658 8.3528 6.81449C8.46106 7.0724 8.61964 7.30615 8.81929 7.50205C9.01893 7.69796 9.25562 7.85211 9.51553 7.95548C9.77544 8.05885 10.0533 8.10937 10.333 8.10409C10.8842 8.09369 11.4093 7.86743 11.7954 7.47396C12.1815 7.08049 12.3978 6.55124 12.3978 5.99997C12.3978 5.4487 12.1815 4.91944 11.7954 4.52597C11.4093 4.13251 10.8842 3.90625 10.333 3.89584Z"/>
</symbol>

<symbol id="logowhite" width="138" height="52" viewBox="0 0 138 52" fill="none">
<g clip-path="url(#clip0_59_72412)">
<path d="M1.461 23.1807C1.461 23.1807 1.16869 23.3043 1.05627 22.9446C1.22491 22.6635 0.291761 20.1451 9.21848 18.4475C18.7973 17.0759 23.5417 19.0546 23.3955 18.9421C19.2681 17.4634 14.8511 16.9743 10.5001 17.5143C2.99001 18.4812 1.41603 19.9652 0.381703 22.0114C0.381703 22.0114 0.0669068 19.122 0.0556641 18.6386C0.12312 18.4025 1.91071 14.5238 11.8605 13.3095C8.1743 13.2456 4.5428 14.207 1.37106 16.0865C1.37106 16.0865 1.13496 15.1758 2.67522 14.0516C5.96253 12.0654 9.71792 10.9869 13.5582 10.9261C16.446 10.814 19.33 11.2293 22.0689 12.1516C24.5873 13.0397 26.0938 14.2877 25.9814 15.3445C25.9672 15.6647 25.8988 15.9803 25.779 16.2776C25.779 16.2776 27.2968 16.6936 27.0607 18.8297C26.8246 20.9658 26.982 23.102 25.9364 23.0233C25.7902 23.1469 24.5648 20.8984 13.5694 20.7747C2.64149 21.1457 1.60716 23.3156 1.461 23.1807Z"/>
<path d="M4.68806 35.4154C4.63844 35.3602 4.5859 35.3077 4.53066 35.258C4.45364 35.1943 4.37083 35.1378 4.28332 35.0894C4.21871 35.0512 4.14475 35.0318 4.06971 35.0332C4.03907 35.0322 4.00902 35.0417 3.9845 35.0601C3.95997 35.0785 3.94245 35.1047 3.9348 35.1344C3.85855 35.3469 3.79842 35.5649 3.75491 35.7864C3.75491 35.8876 3.75491 35.9776 3.6987 36.0787C3.55254 35.0894 3.40639 34.0775 3.27148 33.0769C2.78804 29.6142 2.37206 26.1402 2.02354 22.8348C2.02354 22.4975 1.95608 22.1715 1.93359 21.8455L2.99041 21.6094C2.99041 21.8567 2.99041 22.104 3.06911 22.3401C3.14781 22.5762 3.06911 22.7674 3.12532 22.981L3.22651 23.9254C3.55254 26.9047 3.9348 29.9964 4.35078 33.0545L4.68806 35.4154Z"/>
<path d="M5.21614 38.9102L5.13744 39.1463C5.10636 39.2425 5.06088 39.3335 5.00253 39.4161C4.96624 39.4754 4.92069 39.5286 4.86762 39.5735C4.84165 39.5873 4.81269 39.5945 4.78329 39.5945C4.75389 39.5945 4.72494 39.5873 4.69897 39.5735C4.64589 39.5412 4.5997 39.4988 4.56304 39.4486C4.52639 39.3985 4.49999 39.3416 4.48536 39.2812C4.43876 39.0972 4.41237 38.9087 4.40666 38.7191C4.39049 38.4757 4.39049 38.2316 4.40666 37.9883C4.40666 37.7185 4.46288 37.4599 4.50785 37.2013C4.55282 36.9427 4.62027 36.7066 4.68773 36.4705C4.75519 36.2344 4.74395 36.2682 4.77767 36.1895C4.93507 37.1114 5.08123 38.0108 5.21614 38.9102Z"/>
<path d="M21.8 40.1379V40.2053C21.7945 40.1605 21.7945 40.1152 21.8 40.0704L21.9124 39.9805L21.8 40.1379Z"/>
<path d="M22.8225 40.1579C22.6089 41.4845 22.3953 42.7774 22.1817 44.0479C21.7432 46.5325 21.2935 48.8822 20.8325 51.0296C15.8993 51.6368 10.8939 51.2235 6.12706 49.8154C5.66611 47.7242 5.2164 45.442 4.78917 43.0698C4.60929 42.0129 4.41816 40.9224 4.23828 39.8094C4.34968 39.9106 4.49269 39.9702 4.64302 39.978C4.71631 39.988 4.79091 39.981 4.86108 39.9576C4.93124 39.9342 4.99511 39.8951 5.04776 39.8431C5.13029 39.757 5.1986 39.6583 5.25013 39.5508C5.46374 40.8887 5.67735 42.1928 5.90221 43.452L6.10457 44.5763C6.38564 46.1503 6.67795 47.6568 6.97026 49.0734C11.1483 50.4406 15.5923 50.7913 19.9331 50.0965C20.2142 48.7248 20.4953 47.2745 20.7651 45.7568C20.855 45.2958 20.9337 44.8236 21.0124 44.3514C21.1848 43.3621 21.3534 42.3502 21.5183 41.3159L21.732 41.0798L22.1817 40.5064C22.4075 40.4143 22.6224 40.2974 22.8225 40.1579Z"/>
<path d="M22.9912 39.293L22.9237 39.7314C22.8212 39.8116 22.7121 39.883 22.5977 39.945L22.8113 39.6078L22.9912 39.293Z"/>
<path d="M23.182 38.0117V38.349C23.1146 38.2953 23.0321 38.2638 22.9459 38.2591C22.8672 38.2591 22.7998 38.3153 22.7548 38.4277L22.6761 38.5851C22.6761 38.6638 22.5862 38.765 22.5187 38.8774L22.3051 39.2259C22.2152 39.3384 22.1365 39.4508 22.0465 39.552L21.9229 39.6869L22.0915 38.5626C22.1786 38.4719 22.2768 38.3926 22.3838 38.3265C22.5582 38.1951 22.7569 38.0996 22.9684 38.0454C23.0379 38.0251 23.1097 38.0137 23.182 38.0117Z"/>
<path d="M25.184 21.5978L25.0828 22.5535C24.7455 26.1511 24.307 29.895 23.8124 33.6051C23.6325 34.943 23.4413 36.2696 23.2502 37.5738C23.1343 37.5627 23.0176 37.5627 22.9017 37.5738C22.6424 37.583 22.387 37.6402 22.1484 37.7424C22.362 36.3595 22.5532 34.9429 22.7443 33.5264C23.1828 30.2322 23.5875 26.8932 23.8686 23.644C23.9248 23.1381 23.9698 22.6434 24.0147 22.1487C24.0147 21.9014 24.0147 21.6541 24.0934 21.418L25.184 21.5978Z"/>
<path d="M2.51855 23.1154C2.92329 23.0142 3.33927 22.9355 3.77774 22.8681C4.2162 22.8006 4.65467 22.7219 5.11562 22.6657C6.06667 22.5505 7.02611 22.5204 7.98251 22.5757C7.03636 22.7085 6.10348 22.9229 5.19432 23.2166C4.75585 23.3515 4.33988 23.4976 3.93514 23.655C3.5304 23.8124 3.12566 23.9586 2.81087 24.116C2.67595 23.7787 2.59725 23.4527 2.51855 23.1154Z"/>
<path d="M24.4303 23.8125C23.7333 23.5652 22.9575 23.3178 22.1818 23.093C21.406 22.8681 20.5066 22.6433 19.6185 22.4634C18.7303 22.2835 17.8084 22.1036 16.864 21.98C15.9057 21.8554 14.9409 21.7879 13.9746 21.7776C14.9395 21.6412 15.9121 21.5661 16.8865 21.5527C17.8421 21.5527 18.7865 21.5527 19.7084 21.6202C20.6303 21.6876 21.5072 21.7663 22.3504 21.8788C23.1936 21.9912 23.9919 22.1149 24.7451 22.2723C24.6215 22.7782 24.5315 23.2953 24.4303 23.8125Z"/>
<path d="M21.4166 45.5443L21.1581 45.6343L20.922 45.7017L20.4723 45.8142C20.165 45.8816 19.8614 45.9378 19.5616 45.9828C18.9618 46.0724 18.3575 46.1287 17.7515 46.1515C17.1444 46.1515 16.5485 46.1515 15.9414 46.1515L15.0308 46.084L14.1201 45.9828L15.0308 45.9266L15.9302 45.8254C16.5373 45.7467 17.1332 45.6343 17.7178 45.4994C18.3118 45.365 18.8974 45.1961 19.4717 44.9935C19.764 44.8923 20.045 44.7911 20.3261 44.6674L20.7308 44.4875L20.9332 44.3863C20.9923 44.3576 21.0487 44.3237 21.1018 44.2852C21.203 44.7574 21.3155 45.1284 21.4166 45.5443Z"/>
<path d="M5.67791 43.252C5.9927 43.4543 6.32998 43.6454 6.66726 43.8253C7.00455 44.0052 7.33059 44.1963 7.66787 44.365C8.33581 44.7058 9.0271 44.9989 9.73653 45.2419C9.02539 45.1874 8.31905 45.0822 7.6229 44.9271L6.56608 44.6685L5.52051 44.3537C5.57672 43.9827 5.57672 43.6342 5.67791 43.252Z"/>
<path d="M20.0679 7.45365C20.0679 8.28561 20.1354 9.14006 20.1578 10.017C20.1607 10.0543 20.1547 10.0917 20.1403 10.1262C20.1259 10.1607 20.1035 10.1913 20.075 10.2154C20.0464 10.2396 20.0125 10.2566 19.9761 10.2651C19.9397 10.2736 19.9018 10.2733 19.8655 10.2643C18.9661 10.1744 18.0555 10.1069 17.1223 10.0732C16.5152 10.6128 15.9081 11.1975 15.2897 11.7371L14.9187 11.3998C15.5371 10.8152 16.1442 10.2756 16.7513 9.72467C16.7513 8.89271 16.7513 8.072 16.6951 7.27376L15.7507 6.45303C14.4241 6.45303 13.0749 6.52049 11.7483 6.63292C11.7133 6.64117 11.6769 6.64168 11.6417 6.63443C11.6065 6.62718 11.5732 6.61233 11.5443 6.59092C11.5154 6.56952 11.4916 6.54207 11.4744 6.51048C11.4572 6.4789 11.447 6.44396 11.4447 6.40807C11.4447 5.2838 11.4447 4.21574 11.501 3.21514L10.9725 2.84413L9.31986 3.06898C9.15122 3.06898 9.02755 3.06898 9.0388 2.88909L9.10625 1.60742C9.10625 1.495 9.24116 1.38257 9.4098 1.36008C9.9607 1.28138 10.5341 1.2027 11.0737 1.14648C11.2311 1.14648 11.366 1.14648 11.3548 1.31512V2.54057L11.8944 2.90035C13.1649 2.77668 14.4353 2.70922 15.7057 2.68673C15.7456 2.68037 15.7864 2.68204 15.8257 2.69165C15.865 2.70127 15.9019 2.71862 15.9344 2.74271C15.9668 2.76679 15.9942 2.79712 16.0148 2.83191C16.0353 2.8667 16.0488 2.90526 16.0543 2.94531C16.0543 3.95715 16.1105 5.02522 16.1442 6.14949L17.0773 6.9702C17.9992 6.9702 18.9099 7.06015 19.7981 7.15009C19.8691 7.16614 19.9334 7.20405 19.9818 7.25849C20.0302 7.31294 20.0603 7.3812 20.0679 7.45365Z"/>
<path d="M10.7364 7.21765C10.0731 7.29635 9.40973 7.3863 8.75766 7.48748C8.68024 7.50103 8.60912 7.53881 8.55457 7.59539C8.50001 7.65196 8.46483 7.72442 8.4541 7.80227C8.4541 8.37565 8.4541 8.92654 8.4541 9.53365C8.45481 9.5705 8.46375 9.60674 8.48026 9.6397C8.49678 9.67265 8.52045 9.7015 8.54954 9.72414C8.57864 9.74677 8.61243 9.7626 8.64844 9.77049C8.68444 9.77838 8.72176 9.77814 8.75766 9.76975C9.40973 9.66857 10.0731 9.57861 10.7476 9.51116C10.8269 9.50408 10.9013 9.47012 10.9585 9.4149C11.0158 9.35968 11.0525 9.28654 11.0624 9.20761C11.0624 8.61175 11.0624 8.08335 11.0624 7.45375C11.0399 7.3076 10.905 7.20641 10.7364 7.21765Z"/>
<path d="M12.5018 0.910731H13.1988C13.3562 0.910731 13.4911 0.798307 13.4911 0.68588V0.191198C13.4911 0.0900135 13.3562 0.0113127 13.1988 0.0225554H12.513C12.3556 0.0225554 12.2207 0.134988 12.2207 0.247415C12.2207 0.359842 12.2207 0.573446 12.2207 0.730844C12.2207 0.888242 12.3219 0.966945 12.5018 0.910731Z"/>
<path d="M19.6743 4.2055H19.0672C19.0327 4.19879 18.9971 4.1999 18.963 4.20872C18.929 4.21754 18.8973 4.23387 18.8704 4.2565C18.8434 4.27913 18.8219 4.30748 18.8073 4.33951C18.7928 4.37154 18.7855 4.40642 18.7862 4.4416C18.7862 4.61024 18.7862 4.79013 18.7862 4.95877C18.7964 5.03351 18.8323 5.10235 18.8877 5.1536C18.943 5.20485 19.0144 5.23534 19.0897 5.23984L19.6968 5.29604C19.8655 5.29604 19.9891 5.20611 19.9779 5.05995C19.9667 4.9138 19.9779 4.71143 19.9779 4.53154C19.9756 4.44959 19.9435 4.37128 19.8876 4.31127C19.8317 4.25127 19.7559 4.21366 19.6743 4.2055Z"/>
<path d="M21.6307 5.71104C21.2784 5.65108 20.9299 5.6061 20.5851 5.57612C20.5518 5.5669 20.5168 5.56588 20.4831 5.57315C20.4493 5.58042 20.4178 5.59577 20.3913 5.61787C20.3648 5.63998 20.344 5.66819 20.3308 5.70008C20.3175 5.73197 20.3122 5.7666 20.3153 5.80099C20.3153 6.11578 20.3153 6.44181 20.3153 6.75661C20.3181 6.83622 20.351 6.91183 20.4073 6.96816C20.4636 7.0245 20.5392 7.05737 20.6189 7.06017L21.6532 7.20633C21.6865 7.21555 21.7215 7.21657 21.7552 7.20929C21.789 7.20202 21.8205 7.18668 21.847 7.16457C21.8735 7.14247 21.8943 7.11425 21.9075 7.08236C21.9208 7.05047 21.9261 7.01585 21.923 6.98146C21.923 6.65542 21.923 6.32938 21.923 6.01458C21.916 5.93832 21.8832 5.86671 21.8301 5.81154C21.777 5.75637 21.7066 5.72093 21.6307 5.71104Z"/>
<path d="M8.06075 6.99497C8.06075 6.59023 8.06075 6.18548 8.11696 5.79199C8.11696 5.65707 7.99329 5.56713 7.82465 5.60086L6.4418 5.88193C6.36696 5.90105 6.29893 5.94062 6.24532 5.99622C6.1917 6.05182 6.15463 6.12125 6.13824 6.19673C6.13824 6.59022 6.13824 6.99497 6.08203 7.3997C6.08203 7.54586 6.2057 7.62456 6.3631 7.59083L7.7572 7.30976C7.83535 7.29792 7.90743 7.26068 7.96229 7.20378C8.01716 7.14688 8.05176 7.0735 8.06075 6.99497Z"/>
<path d="M25.3304 34.3935C24.9256 37.2604 24.4647 40.1497 23.9587 42.9267C23.9299 43.0816 23.8636 43.2272 23.7656 43.3506C23.6676 43.4741 23.5409 43.5717 23.3966 43.635C23.1155 43.7362 22.7221 43.8823 22.2161 44.0285L21.0919 44.3208C18.6387 44.9355 16.1065 45.1743 13.5817 45.0291C11.0292 44.8423 8.514 44.309 6.10531 43.4439L5.80176 43.3314C5.49821 43.2303 5.21714 43.1178 4.95856 43.0166C4.40767 42.803 3.9692 42.6119 3.66564 42.4658C3.52282 42.3943 3.39805 42.2915 3.30068 42.1649C3.20332 42.0383 3.13591 41.8913 3.10351 41.735C2.60883 39.1042 2.17036 36.3834 1.76562 33.6964C1.76562 33.3816 1.86681 33.1343 2.12539 33.123H3.40706H4.53133C6.48757 33.123 9.53434 33.1231 13.6941 33.1905C17.854 33.258 20.9794 33.4378 22.9132 33.584L24.0374 33.6739C24.5771 33.6739 24.9594 33.7751 25.1617 33.8201C25.3641 33.8651 25.3866 34.0562 25.3304 34.3935Z"/>
<path d="M37.5841 32.3911L37.2356 32.2224C35.3693 31.368 34.4249 30.4461 34.4249 29.4792C34.4105 29.2074 34.4577 28.9358 34.5628 28.6847C34.6679 28.4336 34.8283 28.2094 35.032 28.0289C35.5051 27.6401 36.1071 27.4435 36.7184 27.478C37.1839 27.4732 37.6421 27.5936 38.0451 27.8265C38.5041 28.1063 38.8895 28.4918 39.1693 28.9508L39.248 29.0632L41.5528 27.894V27.7703C41.2296 26.8497 40.5821 26.0783 39.7315 25.6005C38.7351 25.0758 37.619 24.8201 36.4936 24.8585C35.1006 24.7993 33.7375 25.2737 32.6823 26.1851C32.1989 26.6264 31.8177 27.1679 31.5652 27.7719C31.3128 28.3758 31.1952 29.0275 31.2207 29.6816C31.1942 30.7043 31.5375 31.7023 32.1876 32.4923C33.2909 33.5718 34.5877 34.4338 36.0101 35.0331C36.1338 35.0331 36.3025 35.168 36.5385 35.2805C38.1463 36.045 38.9557 36.8994 38.9557 37.8438C38.9717 38.1646 38.9188 38.4852 38.8005 38.7838C38.6822 39.0825 38.5013 39.3523 38.2699 39.5752C37.7588 40.0311 37.0875 40.2657 36.4036 40.2272C35.6709 40.2585 34.947 40.0579 34.335 39.6539C33.779 39.2461 33.3816 38.658 33.2107 37.9899V37.8213L30.7373 38.9456V39.058C30.9775 40.2441 31.6508 41.2983 32.6261 42.0148C33.7066 42.7409 34.9906 43.1032 36.2912 43.0492C37.838 43.1251 39.3537 42.597 40.5185 41.5764C41.0468 41.0663 41.4604 40.4496 41.7317 39.7672C42.0031 39.0848 42.1261 38.3525 42.0924 37.6189C42.1231 36.5732 41.7758 35.5514 41.1143 34.7408C40.1109 33.7241 38.9093 32.9244 37.5841 32.3911Z"/>
<path d="M48.6689 25.207H45.5996V42.577H48.6689V25.207Z"/>
<path d="M52.7957 25.207V27.8603H59.9348L51.2217 42.5883H64.7017V39.8113H56.0785L64.7017 25.207H52.7957Z"/>
<path d="M67.5801 42.5883H77.395V39.8113H70.6381V35.1906H76.5405V32.4586H70.6381V27.8603H77.395V25.207H67.5801V42.5883Z"/>
<path d="M91.0213 35.3471C91.0213 35.4483 90.8976 35.6057 90.8077 35.8081C90.5379 36.3927 90.3243 36.8986 90.1669 37.3259C89.9982 36.8986 89.8521 36.5276 89.7172 36.2016C89.5822 35.8755 89.4473 35.5158 89.3686 35.3359L84.1408 24.1719L79.9697 42.565H82.8254L84.6804 34.043C84.7806 33.6319 84.8557 33.2152 84.9053 32.795C84.9053 32.6714 84.9053 32.5477 84.9053 32.424C84.9053 32.5365 84.9952 32.6489 85.0289 32.7613C85.1751 33.1211 85.3325 33.5033 85.5236 33.8856L90.1219 43.4419L94.7202 34.0767C94.9099 33.6826 95.0751 33.277 95.2149 32.8625C95.2149 32.7276 95.3048 32.5927 95.3385 32.4578C95.3385 32.5927 95.3385 32.7501 95.3385 32.9075C95.406 33.5146 95.4622 33.8856 95.4959 34.0317L97.4072 42.5762H100.285L96.0131 24.1831L91.0213 35.3471Z"/>
<path d="M113.755 35.7615C113.846 36.9758 113.477 38.1799 112.72 39.1343C111.855 39.8529 110.765 40.2462 109.64 40.2462C108.515 40.2462 107.425 39.8529 106.559 39.1343C105.803 38.1799 105.434 36.9758 105.525 35.7615V25.2383H102.501V36.02C102.429 36.9765 102.549 37.9377 102.854 38.8471C103.159 39.7565 103.643 40.5957 104.277 41.3154C105.835 42.4589 107.718 43.0755 109.651 43.0755C111.584 43.0755 113.467 42.4589 115.025 41.3154C115.664 40.6004 116.151 39.7638 116.458 38.8558C116.765 37.9478 116.886 36.9871 116.813 36.0313V25.2495H113.755V35.7615Z"/>
<path d="M137.038 34.1666C137.038 33.9642 137.038 33.7955 137.038 33.6831V33.5145H129.977V36.1453H134.081V36.2577C134.103 36.8108 133.997 37.3615 133.77 37.8666C133.544 38.3718 133.204 38.8178 132.777 39.1696C131.713 39.9338 130.419 40.3107 129.112 40.2376C128.281 40.2752 127.452 40.1385 126.677 39.8364C125.903 39.5344 125.2 39.0736 124.614 38.4838C124.037 37.8694 123.588 37.1466 123.293 36.3572C122.998 35.5678 122.862 34.7277 122.894 33.8855C122.868 33.0592 123.006 32.2358 123.301 31.4637C123.597 30.6915 124.043 29.986 124.614 29.3884C125.196 28.8128 125.888 28.3622 126.65 28.0644C127.412 27.7667 128.227 27.628 129.044 27.657C129.859 27.6439 130.668 27.8049 131.416 28.1292C132.149 28.472 132.797 28.9708 133.316 29.5908L133.406 29.692L135.655 27.9831L135.554 27.8706C134.767 26.9183 133.781 26.1506 132.664 25.6221C131.507 25.1125 130.252 24.8594 128.988 24.8801C127.744 24.8717 126.509 25.0927 125.345 25.5321C124.233 25.9572 123.219 26.604 122.365 27.4331C121.511 28.2623 120.834 29.2565 120.376 30.3553C119.923 31.512 119.694 32.7444 119.701 33.9867C119.694 35.2242 119.919 36.4521 120.365 37.6068C120.786 38.7112 121.428 39.7175 122.253 40.5637C123.083 41.4015 124.084 42.0497 125.188 42.4637C126.407 42.8983 127.694 43.1115 128.988 43.0933C131.154 43.2238 133.284 42.4923 134.913 41.0583C135.64 40.3039 136.204 39.407 136.568 38.424C136.931 37.441 137.088 36.3934 137.026 35.347C137.116 35.0997 137.116 34.7287 137.038 34.1666Z"/>
</g>
<defs>
<clipPath>
<rect width="137.06" height="51.3005"/>
</clipPath>
</defs>
</symbol>

<symbol id="mark" width="24" height="14" viewBox="0 0 24 14" fill="none">
<path d="M0.660156 8.41008L6.25016 14.0001L7.66016 12.5801L2.08016 7.00008M22.4902 0.580078L11.9102 11.1701L7.75016 7.00008L6.32016 8.41008L11.9102 14.0001L23.9102 2.00008M18.2502 2.00008L16.8402 0.580078L10.4902 6.93008L11.9102 8.34008L18.2502 2.00008Z"/>
</symbol>

<symbol id="money" width="21" height="14" viewBox="0 0 21 14" fill="none">
<path d="M17.667 1H3.66699C2.56242 1 1.66699 1.89543 1.66699 3V11C1.66699 12.1046 2.56242 13 3.66699 13H17.667C18.7716 13 19.667 12.1046 19.667 11V3C19.667 1.89543 18.7716 1 17.667 1Z" stroke-width="2"/>
<path d="M4.66699 4H6.66699M14.667 10H16.667" stroke-width="2" stroke-linecap="round"/>
<path d="M10.667 9C11.7716 9 12.667 8.10457 12.667 7C12.667 5.89543 11.7716 5 10.667 5C9.56242 5 8.66699 5.89543 8.66699 7C8.66699 8.10457 9.56242 9 10.667 9Z" stroke-width="2"/>
</symbol>

<symbol id="navbars" width="16" height="12" viewBox="0 0 16 12" fill="none">
<path d="M0 1C0 0.734784 0.105357 0.48043 0.292893 0.292893C0.48043 0.105357 0.734784 0 1 0H15C15.2652 0 15.5196 0.105357 15.7071 0.292893C15.8946 0.48043 16 0.734784 16 1C16 1.26522 15.8946 1.51957 15.7071 1.70711C15.5196 1.89464 15.2652 2 15 2H1C0.734784 2 0.48043 1.89464 0.292893 1.70711C0.105357 1.51957 0 1.26522 0 1ZM0 6C0 5.73478 0.105357 5.48043 0.292893 5.29289C0.48043 5.10536 0.734784 5 1 5H15C15.2652 5 15.5196 5.10536 15.7071 5.29289C15.8946 5.48043 16 5.73478 16 6C16 6.26522 15.8946 6.51957 15.7071 6.70711C15.5196 6.89464 15.2652 7 15 7H1C0.734784 7 0.48043 6.89464 0.292893 6.70711C0.105357 6.51957 0 6.26522 0 6ZM0 11C0 10.7348 0.105357 10.4804 0.292893 10.2929C0.48043 10.1054 0.734784 10 1 10H15C15.2652 10 15.5196 10.1054 15.7071 10.2929C15.8946 10.4804 16 10.7348 16 11C16 11.2652 15.8946 11.5196 15.7071 11.7071C15.5196 11.8946 15.2652 12 15 12H1C0.734784 12 0.48043 11.8946 0.292893 11.7071C0.105357 11.5196 0 11.2652 0 11Z"/>
</symbol>

<symbol id="pencil" width="20" height="20" viewBox="0 0 20 20" fill="none">
<path d="M11.0206 3.82843L15.9703 8.77814M11.0206 3.82843L13.849 1L18.7987 5.94975L15.9703 8.77814L11.0206 3.82843ZM11.0206 3.82843L1.41398 13.435C1.22645 13.6225 1.12109 13.8769 1.12109 14.1421V18.6776H5.65662C5.92184 18.6776 6.17619 18.5723 6.36373 18.3847L15.9703 8.77814L11.0206 3.82843Z" stroke-width="1.5" stroke-linecap="round" stroke-linejoin="round"/>
</symbol>

<symbol id="receive" width="16" height="16" viewBox="0 0 16 16" fill="none">
<path d="M13.0454 0.71477L14.8329 2.21461L5.83383 12.9392L14.8738 12.1483L15.078 14.4823L2.06042 15.6212L0.921528 2.60358L3.25549 2.39939L4.04639 11.4394L13.0454 0.71477Z"/>
</symbol>

<symbol id="send" width="16" height="16" viewBox="0 0 16 16" fill="none">
<path d="M2.95458 15.3712L1.16715 13.8713L10.1662 3.14671L1.12617 3.93761L0.921971 1.60364L13.9396 0.464748L15.0785 13.4824L12.7445 13.6866L11.9536 4.64655L2.95458 15.3712Z"/>
</symbol>

<symbol id="signal" width="33" height="28" viewBox="0 0 33 28" fill="none">
<path fill-rule="evenodd" clip-rule="evenodd" d="M2.89473 18.9521L2.88827 18.9581L2.88202 18.9641C2.53336 19.3016 1.7485 19.4005 1.13252 19.1051C0.639429 18.8686 0.488529 18.3422 0.90479 17.9265C1.52634 17.3852 1.97633 16.7522 2.27069 16.1333C2.57714 15.489 2.71713 14.7568 2.70729 14.0386C2.69746 13.3204 2.53742 12.5891 2.21335 11.9467C1.90206 11.3298 1.43476 10.6996 0.798441 10.1622C0.370827 9.74909 0.507295 9.22181 0.993868 8.9823C1.6017 8.68311 2.38921 8.77704 2.74707 9.11233L2.75349 9.11834L2.76011 9.12425C3.55234 9.83147 4.20332 10.6171 4.59412 11.3878C5.00603 12.2943 5.27018 13.1712 5.28195 14.0306C5.29433 14.9349 5.1723 15.7908 4.68935 16.6331C4.16337 17.5505 3.65294 18.2535 2.89473 18.9521ZM8.60258 20.6335L8.6179 20.6187L8.63194 20.6033C10.3675 18.7008 11.3614 16.4045 11.3287 14.0117C11.2959 11.6195 10.2396 9.33018 8.45295 7.43891C8.06574 7.02369 8.2357 6.53307 8.8824 6.21474C9.31673 6.00095 10.1349 6.07714 10.6227 6.51964C12.6401 8.68397 13.8663 11.2997 13.9033 14.0037C13.9416 16.8 12.7875 19.3296 10.8278 21.5077C10.374 21.9347 9.67615 22.054 9.07235 21.8116C8.41738 21.4858 8.29476 20.9315 8.60258 20.6335ZM18.728 3.68028L18.7454 3.7034L18.7654 3.7255C21.4995 6.73907 23.0294 10.2143 23.0809 13.9751C23.1324 17.7342 21.6991 21.2171 19.0502 24.2465C18.644 24.6935 17.9545 24.8191 17.2534 24.5973C16.6149 24.3147 16.4411 23.8467 16.771 23.3744C19.0228 20.6361 20.4141 17.4086 20.3672 13.9835C20.3205 10.5738 18.9907 7.35008 16.5091 4.60915C16.1728 4.14119 16.3353 3.67537 16.9629 3.39016C17.7207 3.14386 18.4614 3.32504 18.728 3.68028ZM26.7543 0.817705L26.7661 0.833501L26.7792 0.848828C30.0937 4.7206 32.0536 9.14624 32.1194 13.9469C32.1851 18.7427 30.3504 23.176 27.1484 27.0652C26.7414 27.507 26.0551 27.6304 25.3574 27.4096C24.7209 27.1279 24.5462 26.662 24.8718 26.1912C27.9574 22.5864 29.6058 18.4091 29.5447 13.955C29.4836 9.4893 27.5736 5.32639 24.5408 1.75411C24.1604 1.23266 24.4233 0.722281 24.949 0.541015C25.7207 0.27495 26.4829 0.456211 26.7543 0.817705Z"/>
</symbol>

<symbol id="status" width="24" height="24" viewBox="0 0 24 24" fill="none">
<path fill-rule="evenodd" clip-rule="evenodd" d="M23.9125 10.5495C24.2444 13.274 23.6323 16.03 22.1782 18.3579C20.7242 20.6858 18.5161 22.4449 15.9221 23.3418C13.3281 24.2388 10.505 24.2194 7.92359 23.2869C5.34216 22.3544 3.15841 20.5651 1.73648 18.2175C1.58172 17.9623 1.53469 17.6561 1.60572 17.3662C1.67675 17.0763 1.86002 16.8265 2.11523 16.6717C2.37043 16.517 2.67666 16.47 2.96654 16.541C3.25643 16.612 3.50622 16.7953 3.66098 17.0505C4.42694 18.3153 5.47056 19.3894 6.71286 20.1914C7.95517 20.9933 9.36361 21.5023 10.8316 21.6796C12.2996 21.8569 13.7887 21.698 15.1863 21.2149C16.5838 20.7319 17.8532 19.9372 18.8983 18.8912C19.9434 17.8451 20.7369 16.575 21.2188 15.1771C21.7006 13.7791 21.8581 12.2898 21.6795 10.822C21.5008 9.35414 20.9907 7.94615 20.1876 6.70457C19.3845 5.46298 18.3095 4.42033 17.044 3.6555C16.7886 3.50114 16.6049 3.25165 16.5335 2.96191C16.462 2.67216 16.5086 2.3659 16.663 2.1105C16.8173 1.8551 17.0668 1.67147 17.3566 1.60002C17.6463 1.52857 17.9526 1.57514 18.208 1.7295C19.7654 2.67088 21.0882 3.95414 22.0765 5.48218C23.0648 7.01023 23.6926 8.74304 23.9125 10.5495ZM13.501 1.5C13.501 1.89782 13.3429 2.27936 13.0616 2.56066C12.7803 2.84196 12.3988 3 12.001 3C11.6032 3 11.2216 2.84196 10.9403 2.56066C10.659 2.27936 10.501 1.89782 10.501 1.5C10.501 1.10218 10.659 0.720644 10.9403 0.43934C11.2216 0.158035 11.6032 0 12.001 0C12.3988 0 12.7803 0.158035 13.0616 0.43934C13.3429 0.720644 13.501 1.10218 13.501 1.5ZM4.20698 7.5C4.30702 7.32934 4.37233 7.14058 4.39912 6.94459C4.42592 6.74859 4.41369 6.54923 4.36313 6.35798C4.31256 6.16673 4.22467 5.98737 4.10451 5.83023C3.98434 5.67309 3.83428 5.54127 3.66297 5.44235C3.49165 5.34344 3.30246 5.27939 3.10629 5.2539C2.91012 5.2284 2.71085 5.24195 2.51994 5.29379C2.32903 5.34562 2.15026 5.4347 1.99392 5.5559C1.83757 5.6771 1.70675 5.82803 1.60898 6C1.4132 6.34434 1.36157 6.75213 1.46535 7.1344C1.56914 7.51666 1.8199 7.84236 2.16294 8.04041C2.50597 8.23847 2.91341 8.2928 3.29635 8.19156C3.6793 8.09031 4.00665 7.84171 4.20698 7.5ZM1.50098 10.5C1.8988 10.5 2.28033 10.658 2.56164 10.9393C2.84294 11.2206 3.00098 11.6022 3.00098 12C3.00098 12.3978 2.84294 12.7794 2.56164 13.0607C2.28033 13.342 1.8988 13.5 1.50098 13.5C1.10315 13.5 0.721621 13.342 0.440316 13.0607C0.159012 12.7794 0.000976563 12.3978 0.000976562 12C0.000976563 11.6022 0.159012 11.2206 0.440316 10.9393C0.721621 10.658 1.10315 10.5 1.50098 10.5ZM7.50098 4.206C7.67295 4.10823 7.82388 3.9774 7.94508 3.82106C8.06628 3.66472 8.15536 3.48595 8.20719 3.29504C8.25902 3.10413 8.27258 2.90485 8.24708 2.70868C8.22158 2.51251 8.15753 2.32332 8.05862 2.15201C7.95971 1.98069 7.82789 1.83063 7.67075 1.71047C7.5136 1.59031 7.33425 1.50241 7.143 1.45185C6.95175 1.40129 6.75239 1.38905 6.55639 1.41585C6.36039 1.44265 6.17163 1.50795 6.00098 1.608C5.65927 1.80833 5.41066 2.13568 5.30942 2.51862C5.20818 2.90157 5.26251 3.30901 5.46057 3.65204C5.65862 3.99507 5.98432 4.24584 6.36658 4.34962C6.74884 4.45341 7.15664 4.40177 7.50098 4.206Z"/>
</symbol>

<symbol id="success" width="48" height="48" viewBox="0 0 48 48" fill="none">
<path d="M24 48C17.6348 48 11.5303 45.4714 7.02944 40.9706C2.52856 36.4697 0 30.3652 0 24C0 17.6348 2.52856 11.5303 7.02944 7.02944C11.5303 2.52856 17.6348 0 24 0C30.3652 0 36.4697 2.52856 40.9706 7.02944C45.4714 11.5303 48 17.6348 48 24C48 30.3652 45.4714 36.4697 40.9706 40.9706C36.4697 45.4714 30.3652 48 24 48ZM19.2 36L40.8 15.6L37.2 12L19.2 28.8L10.8 20.4L7.2 24L19.2 36Z"/>
</symbol>

<symbol id="transaction" width="22" height="22" viewBox="0 0 22 22" fill="none">
<path d="M1 6H19M15 1L20 6L15 11M21 16H3M7 11L2 16L7 21" stroke-width="2"/>
</symbol>

<symbol id="user" width="18" height="19" viewBox="0 0 18 19" fill="none">
<path d="M16.5 17.5C16.025 8.167 1.975 8.167 1.5 17.5M12 4.5C12 5.29565 11.6839 6.05871 11.1213 6.62132C10.5587 7.18393 9.79565 7.5 9 7.5C8.20435 7.5 7.44129 7.18393 6.87868 6.62132C6.31607 6.05871 6 5.29565 6 4.5C6 3.70435 6.31607 2.94129 6.87868 2.37868C7.44129 1.81607 8.20435 1.5 9 1.5C9.79565 1.5 10.5587 1.81607 11.1213 2.37868C11.6839 2.94129 12 3.70435 12 4.5Z" stroke-width="2" stroke-linecap="round" stroke-linejoin="round"/>
</symbol>

<symbol id="vite" aria-hidden="true" role="img" class="iconify iconify--logos" width="31.88" height="32" preserveAspectRatio="xMidYMid meet" viewBox="0 0 256 257"><defs><linearGradient x1="-.828%" x2="57.636%" y1="7.652%" y2="78.411%"><stop offset="0%" stop-color="#41D1FF"></stop><stop offset="100%" stop-color="#BD34FE"></stop></linearGradient><linearGradient id="IconifyId1813088fe1fbc01fb467" x1="43.376%" x2="50.316%" y1="2.242%" y2="89.03%"><stop offset="0%" stop-color="#FFEA83"></stop><stop offset="8.333%" stop-color="#FFDD35"></stop><stop offset="100%" stop-color="#FFA800"></stop></linearGradient></defs><path d="M255.153 37.938L134.897 252.976c-2.483 4.44-8.862 4.466-11.382.048L.875 37.958c-2.746-4.814 1.371-10.646 6.827-9.67l120.385 21.517a6.537 6.537 0 0 0 2.322-.004l117.867-21.483c5.438-.991 9.574 4.796 6.877 9.62Z"></path><path d="M185.432.063L96.44 17.501a3.268 3.268 0 0 0-2.634 3.014l-5.474 92.456a3.268 3.268 0 0 0 3.997 3.378l24.777-5.718c2.318-.535 4.413 1.507 3.936 3.838l-7.361 36.047c-.495 2.426 1.782 4.5 4.151 3.78l15.304-4.649c2.372-.72 4.652 1.36 4.15 3.788l-11.698 56.621c-.732 3.542 3.979 5.473 5.943 2.437l1.313-2.028l72.516-144.72c1.215-2.423-.88-5.186-3.54-4.672l-25.505 4.922c-2.396.462-4.435-1.77-3.759-4.114l16.646-57.705c.677-2.35-1.37-4.583-3.769-4.113Z"></path></symbol>
<symbol id="withdraw" width="26" height="26" viewBox="0 0 26 26" fill="none">
<path fill-rule="evenodd" clip-rule="evenodd" d="M13 0.929688L21.1275 9.05529L19.8059 10.3769L13.9334 4.50249V21.8494H12.0667V4.50249L6.19417 10.3769L4.87257 9.05529L13 0.929688ZM25.1334 23.7161V25.5828H0.866699V23.7161H25.1334Z"/>
</symbol>

<symbol id="navbars" width="16" height="12" viewBox="0 0 16 12" fill="none">
<path d="M0 1C0 0.734784 0.105357 0.48043 0.292893 0.292893C0.48043 0.105357 0.734784 0 1 0H15C15.2652 0 15.5196 0.105357 15.7071 0.292893C15.8946 0.48043 16 0.734784 16 1C16 1.26522 15.8946 1.51957 15.7071 1.70711C15.5196 1.89464 15.2652 2 15 2H1C0.734784 2 0.48043 1.89464 0.292893 1.70711C0.105357 1.51957 0 1.26522 0 1ZM0 6C0 5.73478 0.105357 5.48043 0.292893 5.29289C0.48043 5.10536 0.734784 5 1 5H15C15.2652 5 15.5196 5.10536 15.7071 5.29289C15.8946 5.48043 16 5.73478 16 6C16 6.26522 15.8946 6.51957 15.7071 6.70711C15.5196 6.89464 15.2652 7 15 7H1C0.734784 7 0.48043 6.89464 0.292893 6.70711C0.105357 6.51957 0 6.26522 0 6ZM0 11C0 10.7348 0.105357 10.4804 0.292893 10.2929C0.48043 10.1054 0.734784 10 1 10H15C15.2652 10 15.5196 10.1054 15.7071 10.2929C15.8946 10.4804 16 10.7348 16 11C16 11.2652 15.8946 11.5196 15.7071 11.7071C15.5196 11.8946 15.2652 12 15 12H1C0.734784 12 0.48043 11.8946 0.292893 11.7071C0.105357 11.5196 0 11.2652 0 11Z"/>
</symbol>

</svg>
