<svg width="24" height="24" viewBox="0 0 24 24" fill="none" xmlns="http://www.w3.org/2000/svg">
<path fill-rule="evenodd" clip-rule="evenodd" d="M23.9125 10.5495C24.2444 13.274 23.6323 16.03 22.1782 18.3579C20.7242 20.6858 18.5161 22.4449 15.9221 23.3418C13.3281 24.2388 10.505 24.2194 7.92359 23.2869C5.34216 22.3544 3.15841 20.5651 1.73648 18.2175C1.58172 17.9623 1.53469 17.6561 1.60572 17.3662C1.67675 17.0763 1.86002 16.8265 2.11523 16.6717C2.37043 16.517 2.67666 16.47 2.96654 16.541C3.25643 16.612 3.50622 16.7953 3.66098 17.0505C4.42694 18.3153 5.47056 19.3894 6.71286 20.1914C7.95517 20.9933 9.36361 21.5023 10.8316 21.6796C12.2996 21.8569 13.7887 21.698 15.1863 21.2149C16.5838 20.7319 17.8532 19.9372 18.8983 18.8912C19.9434 17.8451 20.7369 16.575 21.2188 15.1771C21.7006 13.7791 21.8581 12.2898 21.6795 10.822C21.5008 9.35414 20.9907 7.94615 20.1876 6.70457C19.3845 5.46298 18.3095 4.42033 17.044 3.6555C16.7886 3.50114 16.6049 3.25165 16.5335 2.96191C16.462 2.67216 16.5086 2.3659 16.663 2.1105C16.8173 1.8551 17.0668 1.67147 17.3566 1.60002C17.6463 1.52857 17.9526 1.57514 18.208 1.7295C19.7654 2.67088 21.0882 3.95414 22.0765 5.48218C23.0648 7.01023 23.6926 8.74304 23.9125 10.5495ZM13.501 1.5C13.501 1.89782 13.3429 2.27936 13.0616 2.56066C12.7803 2.84196 12.3988 3 12.001 3C11.6032 3 11.2216 2.84196 10.9403 2.56066C10.659 2.27936 10.501 1.89782 10.501 1.5C10.501 1.10218 10.659 0.720644 10.9403 0.43934C11.2216 0.158035 11.6032 0 12.001 0C12.3988 0 12.7803 0.158035 13.0616 0.43934C13.3429 0.720644 13.501 1.10218 13.501 1.5ZM4.20698 7.5C4.30702 7.32934 4.37233 7.14058 4.39912 6.94459C4.42592 6.74859 4.41369 6.54923 4.36313 6.35798C4.31256 6.16673 4.22467 5.98737 4.10451 5.83023C3.98434 5.67309 3.83428 5.54127 3.66297 5.44235C3.49165 5.34344 3.30246 5.27939 3.10629 5.2539C2.91012 5.2284 2.71085 5.24195 2.51994 5.29379C2.32903 5.34562 2.15026 5.4347 1.99392 5.5559C1.83757 5.6771 1.70675 5.82803 1.60898 6C1.4132 6.34434 1.36157 6.75213 1.46535 7.1344C1.56914 7.51666 1.8199 7.84236 2.16294 8.04041C2.50597 8.23847 2.91341 8.2928 3.29635 8.19156C3.6793 8.09031 4.00665 7.84171 4.20698 7.5ZM1.50098 10.5C1.8988 10.5 2.28033 10.658 2.56164 10.9393C2.84294 11.2206 3.00098 11.6022 3.00098 12C3.00098 12.3978 2.84294 12.7794 2.56164 13.0607C2.28033 13.342 1.8988 13.5 1.50098 13.5C1.10315 13.5 0.721621 13.342 0.440316 13.0607C0.159012 12.7794 0.000976563 12.3978 0.000976562 12C0.000976563 11.6022 0.159012 11.2206 0.440316 10.9393C0.721621 10.658 1.10315 10.5 1.50098 10.5ZM7.50098 4.206C7.67295 4.10823 7.82388 3.9774 7.94508 3.82106C8.06628 3.66472 8.15536 3.48595 8.20719 3.29504C8.25902 3.10413 8.27258 2.90485 8.24708 2.70868C8.22158 2.51251 8.15753 2.32332 8.05862 2.15201C7.95971 1.98069 7.82789 1.83063 7.67075 1.71047C7.5136 1.59031 7.33425 1.50241 7.143 1.45185C6.95175 1.40129 6.75239 1.38905 6.55639 1.41585C6.36039 1.44265 6.17163 1.50795 6.00098 1.608C5.65927 1.80833 5.41066 2.13568 5.30942 2.51862C5.20818 2.90157 5.26251 3.30901 5.46057 3.65204C5.65862 3.99507 5.98432 4.24584 6.36658 4.34962C6.74884 4.45341 7.15664 4.40177 7.50098 4.206Z" fill="#363636"/>
</svg>
