<svg width="24" height="24" viewBox="0 0 24 24" fill="none" xmlns="http://www.w3.org/2000/svg">
<path d="M18.8346 19.0007C17.5396 19.0007 16.5013 20.039 16.5013 21.334C16.5013 21.9528 16.7471 22.5463 17.1847 22.9839C17.6223 23.4215 18.2158 23.6673 18.8346 23.6673C19.4535 23.6673 20.047 23.4215 20.4846 22.9839C20.9221 22.5463 21.168 21.9528 21.168 21.334C21.168 20.7151 20.9221 20.1217 20.4846 19.6841C20.047 19.2465 19.4535 19.0007 18.8346 19.0007ZM0.167969 0.333984V2.66732H2.5013L6.7013 11.5223L5.11463 14.3807C4.93963 14.7073 4.83464 15.0923 4.83464 15.5007C4.83464 16.1195 5.08047 16.713 5.51805 17.1506C5.95564 17.5882 6.54913 17.834 7.16797 17.834H21.168V15.5007H7.65797C7.58061 15.5007 7.50643 15.4699 7.45173 15.4152C7.39703 15.3605 7.3663 15.2863 7.3663 15.209C7.3663 15.1507 7.37797 15.104 7.4013 15.069L8.4513 13.1673H17.143C18.018 13.1673 18.788 12.6773 19.1846 11.9657L23.3613 4.41732C23.443 4.23065 23.5013 4.03232 23.5013 3.83398C23.5013 3.52456 23.3784 3.22782 23.1596 3.00903C22.9408 2.79023 22.6441 2.66732 22.3346 2.66732H5.07964L3.98297 0.333984M7.16797 19.0007C5.87297 19.0007 4.83464 20.039 4.83464 21.334C4.83464 21.9528 5.08047 22.5463 5.51805 22.9839C5.95564 23.4215 6.54913 23.6673 7.16797 23.6673C7.78681 23.6673 8.3803 23.4215 8.81788 22.9839C9.25547 22.5463 9.5013 21.9528 9.5013 21.334C9.5013 20.7151 9.25547 20.1217 8.81788 19.6841C8.3803 19.2465 7.78681 19.0007 7.16797 19.0007Z" fill="#1C64F2"/>
</svg>
