<svg width="23" height="23" viewBox="0 0 23 23" fill="none" xmlns="http://www.w3.org/2000/svg">
<path d="M12.6824 1.01765C12.2449 0.580036 11.6515 0.334117 11.0327 0.333984H2.66536C2.04653 0.333984 1.45303 0.579817 1.01545 1.0174C0.577864 1.45499 0.332031 2.04848 0.332031 2.66732V11.0347C0.332163 11.6534 0.578083 12.2468 1.0157 12.6843L10.349 22.0177C10.7866 22.4551 11.38 22.7008 11.9987 22.7008C12.6174 22.7008 13.2108 22.4551 13.6484 22.0177L22.0157 13.6503C22.4531 13.2128 22.6989 12.6194 22.6989 12.0007C22.6989 11.3819 22.4531 10.7885 22.0157 10.351L12.6824 1.01765ZM6.16536 8.50065C5.54637 8.5005 4.95279 8.25445 4.51521 7.81665C4.07762 7.37885 3.83188 6.78514 3.83203 6.16615C3.83219 5.54716 4.07823 4.95358 4.51603 4.51599C4.95384 4.07841 5.54754 3.83266 6.16653 3.83282C6.78552 3.83297 7.3791 4.07902 7.81669 4.51682C8.25427 4.95462 8.50002 5.54832 8.49986 6.16732C8.49971 6.78631 8.25367 7.37989 7.81586 7.81748C7.37806 8.25506 6.78436 8.50081 6.16536 8.50065Z" fill="#1C64F2"/>
</svg>
