<svg width="24" height="24" viewBox="0 0 24 24" fill="none" xmlns="http://www.w3.org/2000/svg">
<path d="M8.62642 4.35665C9.32409 2.31498 12.1451 2.25315 12.9723 4.17115L13.0423 4.35782L13.9838 7.11115C14.1995 7.74259 14.5482 8.32041 15.0063 8.80564C15.4643 9.29088 16.0211 9.67223 16.6391 9.92398L16.8923 10.0185L19.6456 10.9588C21.6873 11.6565 21.7491 14.4775 19.8323 15.3047L19.6456 15.3747L16.8923 16.3162C16.2606 16.5318 15.6825 16.8804 15.1971 17.3385C14.7117 17.7965 14.3301 18.3534 14.0783 18.9715L13.9838 19.2235L13.0434 21.978C12.3458 24.0196 9.52475 24.0815 8.69875 22.1646L8.62642 21.978L7.68609 19.2246C7.47046 18.593 7.12185 18.0149 6.66378 17.5295C6.20572 17.0441 5.64884 16.6625 5.03075 16.4107L4.77875 16.3162L2.02542 15.3758C-0.0174135 14.6782 -0.0792466 11.8572 1.83875 11.0311L2.02542 10.9588L4.77875 10.0185C5.41019 9.80272 5.98802 9.45404 6.47325 8.99598C6.95848 8.53792 7.33983 7.98112 7.59159 7.36315L7.68609 7.11115L8.62642 4.35665ZM20.1683 0.333985C20.3865 0.333984 20.6004 0.395209 20.7856 0.510701C20.9708 0.626193 21.1199 0.791321 21.2159 0.987318L21.2719 1.12382L21.6803 2.32082L22.8784 2.72915C23.0971 2.80346 23.2889 2.94104 23.4294 3.12444C23.5698 3.30784 23.6527 3.52881 23.6674 3.75934C23.6822 3.98988 23.6281 4.2196 23.5122 4.4194C23.3962 4.6192 23.2236 4.78008 23.0161 4.88165L22.8784 4.93765L21.6814 5.34598L21.2731 6.54415C21.1986 6.76282 21.061 6.95447 20.8775 7.09481C20.694 7.23515 20.473 7.31787 20.2425 7.33249C20.012 7.34711 19.7823 7.29297 19.5826 7.17693C19.3828 7.06088 19.2221 6.88816 19.1206 6.68065L19.0646 6.54415L18.6563 5.34715L17.4581 4.93882C17.2394 4.86451 17.0476 4.72693 16.9072 4.54353C16.7667 4.36013 16.6838 4.13916 16.6691 3.90863C16.6544 3.67809 16.7084 3.44837 16.8243 3.24857C16.9403 3.04877 17.1129 2.88789 17.3204 2.78632L17.4581 2.73032L18.6551 2.32198L19.0634 1.12382C19.1421 0.893314 19.2909 0.693211 19.4891 0.551566C19.6872 0.409922 19.9247 0.333838 20.1683 0.333985Z" fill="#1C64F2"/>
</svg>
