<svg width="25" height="25" viewBox="0 0 25 25" fill="none" xmlns="http://www.w3.org/2000/svg">
<path fill-rule="evenodd" clip-rule="evenodd" d="M8.34122 1.67624C8.24505 1.31756 8.01034 1.01178 7.68871 0.826153C7.36709 0.64053 6.9849 0.590274 6.62622 0.686441C6.26754 0.782609 5.96175 1.01732 5.77613 1.33895C5.59051 1.66057 5.54025 2.04276 5.63642 2.40144L5.99902 3.75384C6.09519 4.11252 6.3299 4.41831 6.65153 4.60393C6.97315 4.78955 7.35534 4.83981 7.71402 4.74364C8.0727 4.64747 8.37848 4.41276 8.56411 4.09114C8.74973 3.76951 8.79999 3.38732 8.70382 3.02864L8.34122 1.67624ZM2.40102 5.63684C2.22311 5.58834 2.03738 5.57547 1.85448 5.59896C1.67158 5.62245 1.49512 5.68184 1.33524 5.77372C1.17536 5.8656 1.03521 5.98816 0.922833 6.13436C0.810455 6.28056 0.728066 6.44752 0.680398 6.62565C0.63273 6.80378 0.620722 6.98958 0.645064 7.17236C0.669406 7.35515 0.729618 7.53133 0.822243 7.69077C0.914867 7.85022 1.03808 7.9898 1.1848 8.1015C1.33152 8.2132 1.49887 8.2948 1.67722 8.34164L3.02962 8.70424C3.38765 8.79826 3.76835 8.74666 4.08843 8.56072C4.40852 8.37478 4.64194 8.06965 4.73763 7.71206C4.83332 7.35447 4.78349 6.97353 4.59905 6.65259C4.41461 6.33164 4.11056 6.0968 3.75342 5.99944L2.40102 5.63684ZM14.7406 4.84024C14.8706 4.71017 14.9737 4.55576 15.044 4.38585C15.1143 4.21593 15.1505 4.03383 15.1504 3.84995C15.1503 3.66606 15.1141 3.48398 15.0436 3.31412C14.9732 3.14425 14.87 2.98992 14.7399 2.85994C14.6098 2.72996 14.4554 2.62687 14.2855 2.55656C14.1156 2.48625 13.9335 2.45009 13.7496 2.45016C13.5657 2.45022 13.3837 2.48651 13.2138 2.55694C13.0439 2.62737 12.8896 2.73057 12.7596 2.86064L11.7698 3.85044C11.6397 3.98052 11.5366 4.13494 11.4662 4.30489C11.3958 4.47484 11.3595 4.65699 11.3595 4.84094C11.3595 5.02489 11.3958 5.20705 11.4662 5.377C11.5366 5.54695 11.6397 5.70137 11.7698 5.83144C11.8999 5.96152 12.0543 6.0647 12.2243 6.13509C12.3942 6.20549 12.5764 6.24172 12.7603 6.24172C12.9443 6.24172 13.1264 6.20549 13.2964 6.13509C13.4663 6.0647 13.6207 5.96152 13.7508 5.83144L14.7406 4.84024ZM4.84122 14.741L5.83102 13.7512C6.0939 13.4887 6.24174 13.1325 6.242 12.761C6.24226 12.3895 6.09493 12.0331 5.83242 11.7702C5.56991 11.5074 5.21372 11.3595 4.84221 11.3593C4.4707 11.359 4.1143 11.5063 3.85142 11.7688L2.86022 12.7586C2.59752 13.0213 2.44994 13.3776 2.44994 13.7491C2.44994 14.1207 2.59752 14.4769 2.86022 14.7396C3.12292 15.0023 3.47921 15.1499 3.85072 15.1499C4.22223 15.1499 4.57852 15.0023 4.84122 14.7396M9.32122 7.50024C9.0668 7.3984 8.78809 7.37347 8.51963 7.42854C8.25118 7.48361 8.00479 7.61626 7.81101 7.81004C7.61724 8.00381 7.48459 8.2502 7.42952 8.51866C7.37445 8.78711 7.39938 9.06582 7.50122 9.32024L13.1012 23.3202C13.2016 23.5708 13.3722 23.787 13.5926 23.9429C13.8129 24.0987 14.0737 24.1875 14.3433 24.1986C14.613 24.2097 14.8802 24.1426 15.1126 24.0054C15.345 23.8682 15.5328 23.6667 15.6534 23.4252L17.5854 19.5626L21.8106 23.7906C21.9407 23.9206 22.0951 24.0237 22.265 24.094C22.4349 24.1643 22.617 24.2005 22.8009 24.2004C22.9848 24.2004 23.1669 24.1641 23.3367 24.0936C23.5066 24.0232 23.6609 23.92 23.7909 23.7899C23.9209 23.6599 24.024 23.5055 24.0943 23.3356C24.1646 23.1656 24.2008 22.9835 24.2007 22.7996C24.2006 22.6158 24.1644 22.4337 24.0939 22.2638C24.0235 22.094 23.9203 21.9396 23.7902 21.8096L19.5636 17.5816L23.4276 15.651C23.6686 15.5302 23.8696 15.3423 24.0064 15.1099C24.1432 14.8776 24.21 14.6107 24.1988 14.3413C24.1876 14.0719 24.0988 13.8114 23.9431 13.5913C23.7874 13.3711 23.5715 13.2006 23.3212 13.1002L9.32122 7.50024Z" fill="#1C64F2"/>
</svg>
