<svg width="20" height="18" viewBox="0 0 20 18" fill="none" xmlns="http://www.w3.org/2000/svg">
<path d="M2.49717 6.36983L3.14967 7.50983C3.56517 8.23733 3.77217 8.60033 3.77217 8.99933C3.77217 9.39833 3.56517 9.76133 3.14967 10.4873L2.49717 11.6288C0.640166 14.8793 -0.288334 16.5038 0.434666 17.3108C1.15917 18.1163 2.87517 17.3663 6.30416 15.8663L15.7182 11.7473C18.4107 10.5698 19.7577 9.98033 19.7577 8.99933C19.7577 8.01833 18.4107 7.42883 15.7182 6.25133L6.30416 2.13233C2.87517 0.632327 1.15917 -0.117673 0.434666 0.687827C-0.289834 1.49333 0.640166 3.11783 2.49717 6.36983Z" fill="#1C64F2"/>
</svg>
