<svg width="28" height="22" viewBox="0 0 28 22" fill="none" xmlns="http://www.w3.org/2000/svg">
<path d="M2.33333 11C2.33333 7.73333 4.2 4.93333 7 3.65V1.08333C2.91667 2.6 0 6.45 0 11C0 15.55 2.91667 19.4 7 20.9167V18.35C4.2 17.0667 2.33333 14.2667 2.33333 11ZM17.5 0.5C11.6667 0.5 7 5.16667 7 11C7 16.8333 11.6667 21.5 17.5 21.5C23.3333 21.5 28 16.8333 28 11C28 5.16667 23.3333 0.5 17.5 0.5ZM23.3333 12.1667H18.6667V16.8333H16.3333V12.1667H11.6667V9.83333H16.3333V5.16667H18.6667V9.83333H23.3333V12.1667Z" fill="#1C64F2"/>
</svg>
