<svg width="26" height="26" viewBox="0 0 26 26" fill="none" xmlns="http://www.w3.org/2000/svg">
<path fill-rule="evenodd" clip-rule="evenodd" d="M13 0.75C9.7511 0.75 6.63526 2.04062 4.33794 4.33794C2.04062 6.63526 0.75 9.7511 0.75 13C0.75 16.2489 2.04062 19.3647 4.33794 21.6621C6.63526 23.9594 9.7511 25.25 13 25.25C16.2489 25.25 19.3647 23.9594 21.6621 21.6621C23.9594 19.3647 25.25 16.2489 25.25 13C25.25 9.7511 23.9594 6.63526 21.6621 4.33794C19.3647 2.04062 16.2489 0.75 13 0.75ZM12.125 6.875V8.625C10.6795 8.625 9.5 9.8045 9.5 11.25C9.5 12.6955 10.6795 13.875 12.125 13.875H13.875C14.3545 13.875 14.75 14.2705 14.75 14.75C14.75 15.2295 14.3545 15.625 13.875 15.625H9.5V17.375H12.125V19.125H13.875V17.375C15.3205 17.375 16.5 16.1955 16.5 14.75C16.5 13.3045 15.3205 12.125 13.875 12.125H12.125C11.8934 12.1236 11.6716 12.031 11.5078 11.8672C11.344 11.7034 11.2514 11.4816 11.25 11.25C11.25 10.7705 11.6455 10.375 12.125 10.375H16.5V8.625H13.875V6.875H12.125Z" fill="#1C64F2"/>
</svg>
