<svg width="24" height="20" viewBox="0 0 24 20" fill="none" xmlns="http://www.w3.org/2000/svg">
<path fill-rule="evenodd" clip-rule="evenodd" d="M11.9987 0.666016C8.7472 0.666016 5.85853 2.13252 3.8017 3.94785C2.77036 4.85902 1.9187 5.88102 1.31903 6.90068C0.728698 7.90052 0.332031 8.98435 0.332031 9.99935C0.332031 11.0143 0.728698 12.0982 1.31903 13.098C1.9187 14.1165 2.7692 15.1397 3.8017 16.0508C5.85853 17.8662 8.74836 19.3327 11.9987 19.3327C15.2502 19.3327 18.1389 17.8662 20.1957 16.0508C21.2282 15.1397 22.0787 14.1165 22.6784 13.098C23.2687 12.0982 23.6654 11.0143 23.6654 9.99935C23.6654 8.98435 23.2687 7.90052 22.6784 6.90068C22.0787 5.88218 21.2282 4.85902 20.1957 3.94785C18.1389 2.13252 15.249 0.666016 11.9987 0.666016ZM14.332 9.99935C14.752 9.99935 15.1452 9.88852 15.4859 9.69485C15.548 10.4102 15.3887 11.1275 15.0293 11.7492C14.67 12.3709 14.1282 12.8671 13.4773 13.1704C12.8263 13.4737 12.0979 13.5694 11.3907 13.4446C10.6836 13.3198 10.0319 12.9805 9.52413 12.4727C9.01636 11.965 8.67707 11.3133 8.55227 10.6061C8.42747 9.89897 8.52321 9.17053 8.8265 8.51963C9.12979 7.86872 9.62596 7.32686 10.2477 6.96755C10.8694 6.60823 11.5866 6.44884 12.302 6.51102C12.0997 6.8661 11.9943 7.26809 11.9961 7.67675C11.998 8.08541 12.1072 8.48641 12.3127 8.83962C12.5183 9.19283 12.813 9.48586 13.1674 9.68939C13.5218 9.89291 13.9234 9.9998 14.332 9.99935Z" fill="#1C64F2"/>
</svg>
