<svg width="18" height="19" viewBox="0 0 18 19" fill="none" xmlns="http://www.w3.org/2000/svg">
<path d="M16.5 17.5C16.025 8.167 1.975 8.167 1.5 17.5M12 4.5C12 5.29565 11.6839 6.05871 11.1213 6.62132C10.5587 7.18393 9.79565 7.5 9 7.5C8.20435 7.5 7.44129 7.18393 6.87868 6.62132C6.31607 6.05871 6 5.29565 6 4.5C6 3.70435 6.31607 2.94129 6.87868 2.37868C7.44129 1.81607 8.20435 1.5 9 1.5C9.79565 1.5 10.5587 1.81607 11.1213 2.37868C11.6839 2.94129 12 3.70435 12 4.5Z" stroke="#363636" stroke-width="2" stroke-linecap="round" stroke-linejoin="round"/>
</svg>
